# This file uses centimeters as units for non-parametric coordinates.

v -1.607803 -10.561092 1.987442
v 1.123543 -10.561092 1.987442
v -1.607803 10.495380 1.987442
v 1.123543 10.495380 1.987442
v -1.607803 10.495380 -1.932022
v 1.123543 10.495380 -1.932022
v -1.607803 -10.561092 -1.932022
v 1.123543 -10.561092 -1.932022
v -1.575195 -10.723692 2.142166
v 12.207226 -10.723692 2.142166
v -1.575195 -8.626436 2.142166
v 12.207226 -8.626436 2.142166
v -1.575195 -8.626436 -2.142166
v 12.207226 -8.626436 -2.142166
v -1.575195 -10.723692 -2.142166
v 12.207226 -10.723692 -2.142166
v 10.209343 -9.555489 1.691391
v 12.164429 -9.555489 1.691391
v 10.209343 9.489777 1.691391
v 12.164429 9.489777 1.691391
v 10.209343 9.489777 -1.635956
v 12.164429 9.489777 -1.635956
v 10.209343 -9.555489 -1.635956
v 12.164429 -9.555489 -1.635956
v -1.575195 8.626438 2.142166
v 12.207226 8.626438 2.142166
v -1.575195 10.723694 2.142166
v 12.207226 10.723694 2.142166
v -1.575195 10.723694 -2.142166
v 12.207226 10.723694 -2.142166
v -1.575195 8.626438 -2.142166
v 12.207226 8.626438 -2.142166
vt 0.000818 0.813623
vt 0.000818 0.873755
vt 0.186461 0.873755
vt 0.186461 0.813623
vt 0.000818 0.813623
vt 0.000818 0.873755
vt 0.186461 0.873755
vt 0.186461 0.813623
vt 0.000818 0.813623
vt 0.000818 0.873755
vt 0.186461 0.873755
vt 0.186461 0.813623
vt 0.000818 0.813623
vt 0.000818 0.873755
vt 0.186461 0.873755
vt 0.186461 0.813623
vt 0.000818 0.813623
vt 0.000818 0.873755
vt 0.186461 0.873755
vt 0.186461 0.813623
vt 0.000818 0.813623
vt 0.000818 0.873755
vt 0.186461 0.873755
vt 0.186461 0.813623
vt 0.185940 0.872983
vt 0.001339 0.872983
vt 0.001339 0.813586
vt 0.185940 0.813586
vt 0.185940 0.872983
vt 0.001339 0.872983
vt 0.001339 0.813586
vt 0.185940 0.813586
vt 0.185940 0.872983
vt 0.001339 0.872983
vt 0.001339 0.813586
vt 0.185940 0.813586
vt 0.185940 0.872983
vt 0.001339 0.872983
vt 0.001339 0.813586
vt 0.185940 0.813586
vt 0.185940 0.872983
vt 0.001339 0.872983
vt 0.001339 0.813586
vt 0.185940 0.813586
vt 0.185939 0.872983
vt 0.001339 0.872983
vt 0.001339 0.813586
vt 0.185940 0.813586
vt 0.186461 0.749560
vt 0.186461 0.809692
vt 0.000818 0.809692
vt 0.000818 0.749559
vt 0.186461 0.749560
vt 0.186461 0.809692
vt 0.000818 0.809692
vt 0.000818 0.749559
vt 0.186461 0.749560
vt 0.186461 0.809692
vt 0.000818 0.809692
vt 0.000818 0.749559
vt 0.186461 0.749560
vt 0.186461 0.809692
vt 0.000818 0.809692
vt 0.000818 0.749560
vt 0.185940 0.872983
vt 0.001339 0.872983
vt 0.001339 0.813586
vt 0.185940 0.813586
vt 0.185940 0.872983
vt 0.001339 0.872983
vt 0.001339 0.813586
vt 0.185940 0.813586
vt 0.185940 0.872983
vt 0.001339 0.872983
vt 0.001339 0.813586
vt 0.185940 0.813586
vt 0.185940 0.872983
vt 0.001339 0.872983
vt 0.001339 0.813586
vt 0.185940 0.813586
vt 0.185940 0.872983
vt 0.001339 0.872983
vt 0.001339 0.813586
vt 0.185940 0.813586
vt 0.185939 0.872983
vt 0.001339 0.872983
vt 0.001339 0.813586
vt 0.185940 0.813586
vn 0.000000 0.000000 1.000000
vn 0.000000 0.000000 1.000000
vn 0.000000 0.000000 1.000000
vn 0.000000 0.000000 1.000000
vn 0.000000 1.000000 0.000000
vn 0.000000 1.000000 0.000000
vn 0.000000 1.000000 0.000000
vn 0.000000 1.000000 0.000000
vn 0.000000 0.000000 -1.000000
vn 0.000000 0.000000 -1.000000
vn 0.000000 0.000000 -1.000000
vn 0.000000 0.000000 -1.000000
vn 0.000000 -1.000000 0.000000
vn 0.000000 -1.000000 0.000000
vn 0.000000 -1.000000 0.000000
vn 0.000000 -1.000000 0.000000
vn 1.000000 0.000000 0.000000
vn 1.000000 0.000000 0.000000
vn 1.000000 0.000000 0.000000
vn 1.000000 0.000000 0.000000
vn -1.000000 0.000000 0.000000
vn -1.000000 0.000000 0.000000
vn -1.000000 0.000000 0.000000
vn -1.000000 0.000000 0.000000
vn 0.000000 0.000000 1.000000
vn 0.000000 0.000000 1.000000
vn 0.000000 0.000000 1.000000
vn 0.000000 0.000000 1.000000
vn 0.000000 1.000000 0.000000
vn 0.000000 1.000000 0.000000
vn 0.000000 1.000000 0.000000
vn 0.000000 1.000000 0.000000
vn 0.000000 0.000000 -1.000000
vn 0.000000 0.000000 -1.000000
vn 0.000000 0.000000 -1.000000
vn 0.000000 0.000000 -1.000000
vn 0.000000 -1.000000 0.000000
vn 0.000000 -1.000000 0.000000
vn 0.000000 -1.000000 0.000000
vn 0.000000 -1.000000 0.000000
vn 1.000000 0.000000 0.000000
vn 1.000000 0.000000 0.000000
vn 1.000000 0.000000 0.000000
vn 1.000000 0.000000 0.000000
vn -1.000000 0.000000 0.000000
vn -1.000000 0.000000 0.000000
vn -1.000000 0.000000 0.000000
vn -1.000000 0.000000 0.000000
vn 0.000000 0.000000 1.000000
vn 0.000000 0.000000 1.000000
vn 0.000000 0.000000 1.000000
vn 0.000000 0.000000 1.000000
vn 0.000000 0.000000 -1.000000
vn 0.000000 0.000000 -1.000000
vn 0.000000 0.000000 -1.000000
vn 0.000000 0.000000 -1.000000
vn 1.000000 0.000000 0.000000
vn 1.000000 0.000000 0.000000
vn 1.000000 0.000000 0.000000
vn 1.000000 0.000000 0.000000
vn -1.000000 0.000000 0.000000
vn -1.000000 0.000000 0.000000
vn -1.000000 0.000000 0.000000
vn -1.000000 0.000000 0.000000
vn 0.000000 0.000000 1.000000
vn 0.000000 0.000000 1.000000
vn 0.000000 0.000000 1.000000
vn 0.000000 0.000000 1.000000
vn 0.000000 1.000000 0.000000
vn 0.000000 1.000000 0.000000
vn 0.000000 1.000000 0.000000
vn 0.000000 1.000000 0.000000
vn 0.000000 0.000000 -1.000000
vn 0.000000 0.000000 -1.000000
vn 0.000000 0.000000 -1.000000
vn 0.000000 0.000000 -1.000000
vn 0.000000 -1.000000 0.000000
vn 0.000000 -1.000000 0.000000
vn 0.000000 -1.000000 0.000000
vn 0.000000 -1.000000 0.000000
vn 1.000000 0.000000 0.000000
vn 1.000000 0.000000 0.000000
vn 1.000000 0.000000 0.000000
vn 1.000000 0.000000 0.000000
vn -1.000000 0.000000 0.000000
vn -1.000000 0.000000 0.000000
vn -1.000000 0.000000 0.000000
vn -1.000000 0.000000 0.000000
f 1/1/1 2/2/2 4/3/3 3/4/4
f 3/5/5 4/6/6 6/7/7 5/8/8
f 5/9/9 6/10/10 8/11/11 7/12/12
f 7/13/13 8/14/14 2/15/15 1/16/16
f 2/17/17 8/18/18 6/19/19 4/20/20
f 7/21/21 1/22/22 3/23/23 5/24/24
f 9/25/25 10/26/26 12/27/27 11/28/28
f 11/29/29 12/30/30 14/31/31 13/32/32
f 13/33/33 14/34/34 16/35/35 15/36/36
f 15/37/37 16/38/38 10/39/39 9/40/40
f 10/41/41 16/42/42 14/43/43 12/44/44
f 15/45/45 9/46/46 11/47/47 13/48/48
f 17/49/49 18/50/50 20/51/51 19/52/52
f 21/53/53 22/54/54 24/55/55 23/56/56
f 18/57/57 24/58/58 22/59/59 20/60/60
f 23/61/61 17/62/62 19/63/63 21/64/64
f 25/65/65 26/66/66 28/67/67 27/68/68
f 27/69/69 28/70/70 30/71/71 29/72/72
f 29/73/73 30/74/74 32/75/75 31/76/76
f 31/77/77 32/78/78 26/79/79 25/80/80
f 26/81/81 32/82/82 30/83/83 28/84/84
f 31/85/85 25/86/86 27/87/87 29/88/88
