# This file uses centimeters as units for non-parametric coordinates.

v -19.731016 -11.860010 2.073066
v -17.656080 -11.860010 2.073066
v -19.731016 11.777029 2.073066
v -17.656080 11.777029 2.073066
v -19.731016 11.777029 -0.672509
v -17.656080 11.777029 -0.672509
v -19.731016 -11.860010 -0.672509
v -17.656080 -11.860010 -0.672509
v -19.752050 -11.902861 2.203658
v 0.693498 -11.902861 2.203658
v -19.752050 -9.548576 2.203658
v 0.693498 -9.548576 2.203658
v -19.752050 -9.548576 -1.073739
v 0.693498 -9.548576 -1.073739
v -19.752050 -11.902861 -1.073739
v 0.693498 -11.902861 -1.073739
v -10.881492 -10.731163 1.865684
v -7.833274 -10.731163 1.865684
v -10.881492 10.648184 1.865684
v -7.833274 10.648184 1.865684
v -10.881492 10.648184 -0.465119
v -7.833274 10.648184 -0.465119
v -10.881492 -10.731163 -0.465119
v -7.833274 -10.731163 -0.465119
v -1.048476 -1.325247 1.427955
v -1.048476 1.242266 1.427955
v -17.933060 -1.325247 1.427955
v -17.933060 1.242266 1.427955
v -17.933060 -1.325247 -0.027383
v -17.933060 1.242266 -0.027383
v -1.048476 -1.325247 -0.027383
v -1.048476 1.242266 -0.027383
v -19.752050 9.548578 2.203658
v 0.693498 9.548578 2.203658
v -19.752050 11.902861 2.203658
v 0.693498 11.902861 2.203658
v -19.752050 11.902861 -1.073739
v 0.693498 11.902861 -1.073739
v -19.752050 9.548578 -1.073739
v 0.693498 9.548578 -1.073739
v -1.366927 -11.860010 2.073066
v 0.708009 -11.860010 2.073066
v -1.366927 11.777029 2.073066
v 0.708009 11.777029 2.073066
v -1.366927 11.777029 -0.672509
v 0.708009 11.777029 -0.672509
v -1.366927 -11.860010 -0.672509
v 0.708009 -11.860010 -0.672509
vt 0.000818 0.813623
vt 0.000818 0.873755
vt 0.186461 0.873755
vt 0.186461 0.813623
vt 0.000818 0.813623
vt 0.000818 0.873755
vt 0.186461 0.873755
vt 0.186461 0.813623
vt 0.000818 0.813623
vt 0.000818 0.873755
vt 0.186461 0.873755
vt 0.186461 0.813623
vt 0.000818 0.813623
vt 0.000818 0.873755
vt 0.186461 0.873755
vt 0.186461 0.813623
vt 0.000818 0.813623
vt 0.000818 0.873755
vt 0.186461 0.873755
vt 0.186461 0.813623
vt 0.000818 0.813623
vt 0.000818 0.873755
vt 0.186461 0.873755
vt 0.186461 0.813623
vt 0.185940 0.872983
vt 0.001339 0.872983
vt 0.001339 0.813586
vt 0.185940 0.813586
vt 0.185940 0.872983
vt 0.001339 0.872983
vt 0.001339 0.813586
vt 0.185940 0.813586
vt 0.185940 0.872983
vt 0.001339 0.872983
vt 0.001339 0.813586
vt 0.185940 0.813586
vt 0.185940 0.872983
vt 0.001339 0.872983
vt 0.001339 0.813586
vt 0.185940 0.813586
vt 0.185940 0.872983
vt 0.001339 0.872983
vt 0.001339 0.813586
vt 0.185940 0.813586
vt 0.185939 0.872983
vt 0.001339 0.872983
vt 0.001339 0.813586
vt 0.185940 0.813586
vt 0.186461 0.749560
vt 0.186461 0.809692
vt 0.000818 0.809692
vt 0.000818 0.749559
vt 0.186461 0.749560
vt 0.186461 0.809692
vt 0.000818 0.809692
vt 0.000818 0.749559
vt 0.186461 0.749560
vt 0.186461 0.809692
vt 0.000818 0.809692
vt 0.000818 0.749559
vt 0.186461 0.749560
vt 0.186461 0.809692
vt 0.000818 0.809692
vt 0.000818 0.749560
vt 0.186461 0.750818
vt 0.186461 0.810950
vt 0.000818 0.810950
vt 0.000818 0.750818
vt 0.186461 0.750818
vt 0.186461 0.810950
vt 0.000818 0.810950
vt 0.000818 0.750818
vt 0.186461 0.750818
vt 0.186461 0.810950
vt 0.000818 0.810950
vt 0.000818 0.750818
vt 0.186461 0.750818
vt 0.186461 0.810950
vt 0.000818 0.810950
vt 0.000818 0.750818
vt 0.185940 0.872983
vt 0.001339 0.872983
vt 0.001339 0.813586
vt 0.185940 0.813586
vt 0.185940 0.872983
vt 0.001339 0.872983
vt 0.001339 0.813586
vt 0.185940 0.813586
vt 0.185940 0.872983
vt 0.001339 0.872983
vt 0.001339 0.813586
vt 0.185940 0.813586
vt 0.185940 0.872983
vt 0.001339 0.872983
vt 0.001339 0.813586
vt 0.185940 0.813586
vt 0.185940 0.872983
vt 0.001339 0.872983
vt 0.001339 0.813586
vt 0.185940 0.813586
vt 0.185939 0.872983
vt 0.001339 0.872983
vt 0.001339 0.813586
vt 0.185940 0.813586
vt 0.000818 0.813623
vt 0.000818 0.873755
vt 0.186461 0.873755
vt 0.186461 0.813623
vt 0.000818 0.813623
vt 0.000818 0.873755
vt 0.186461 0.873755
vt 0.186461 0.813623
vt 0.000818 0.813623
vt 0.000818 0.873755
vt 0.186461 0.873755
vt 0.186461 0.813623
vt 0.000818 0.813623
vt 0.000818 0.873755
vt 0.186461 0.873755
vt 0.186461 0.813623
vt 0.000818 0.813623
vt 0.000818 0.873755
vt 0.186461 0.873755
vt 0.186461 0.813623
vt 0.000818 0.813623
vt 0.000818 0.873755
vt 0.186461 0.873755
vt 0.186461 0.813623
vn 0.000000 0.000000 1.000000
vn 0.000000 0.000000 1.000000
vn 0.000000 0.000000 1.000000
vn 0.000000 0.000000 1.000000
vn 0.000000 1.000000 0.000000
vn 0.000000 1.000000 0.000000
vn 0.000000 1.000000 0.000000
vn 0.000000 1.000000 0.000000
vn 0.000000 0.000000 -1.000000
vn 0.000000 0.000000 -1.000000
vn 0.000000 0.000000 -1.000000
vn 0.000000 0.000000 -1.000000
vn 0.000000 -1.000000 0.000000
vn 0.000000 -1.000000 0.000000
vn 0.000000 -1.000000 0.000000
vn 0.000000 -1.000000 0.000000
vn 1.000000 0.000000 0.000000
vn 1.000000 0.000000 0.000000
vn 1.000000 0.000000 0.000000
vn 1.000000 0.000000 0.000000
vn -1.000000 0.000000 0.000000
vn -1.000000 0.000000 0.000000
vn -1.000000 0.000000 0.000000
vn -1.000000 0.000000 0.000000
vn 0.000000 0.000000 1.000000
vn 0.000000 0.000000 1.000000
vn 0.000000 0.000000 1.000000
vn 0.000000 0.000000 1.000000
vn 0.000000 1.000000 0.000000
vn 0.000000 1.000000 0.000000
vn 0.000000 1.000000 0.000000
vn 0.000000 1.000000 0.000000
vn 0.000000 0.000000 -1.000000
vn 0.000000 0.000000 -1.000000
vn 0.000000 0.000000 -1.000000
vn 0.000000 0.000000 -1.000000
vn 0.000000 -1.000000 0.000000
vn 0.000000 -1.000000 0.000000
vn 0.000000 -1.000000 0.000000
vn 0.000000 -1.000000 0.000000
vn 1.000000 0.000000 0.000000
vn 1.000000 0.000000 0.000000
vn 1.000000 0.000000 0.000000
vn 1.000000 0.000000 0.000000
vn -1.000000 0.000000 0.000000
vn -1.000000 0.000000 0.000000
vn -1.000000 0.000000 0.000000
vn -1.000000 0.000000 0.000000
vn 0.000000 0.000000 1.000000
vn 0.000000 0.000000 1.000000
vn 0.000000 0.000000 1.000000
vn 0.000000 0.000000 1.000000
vn 0.000000 0.000000 -1.000000
vn 0.000000 0.000000 -1.000000
vn 0.000000 0.000000 -1.000000
vn 0.000000 0.000000 -1.000000
vn 1.000000 0.000000 0.000000
vn 1.000000 0.000000 0.000000
vn 1.000000 0.000000 0.000000
vn 1.000000 0.000000 0.000000
vn -1.000000 0.000000 0.000000
vn -1.000000 0.000000 0.000000
vn -1.000000 0.000000 0.000000
vn -1.000000 0.000000 0.000000
vn 0.000000 0.000000 1.000000
vn 0.000000 0.000000 1.000000
vn 0.000000 0.000000 1.000000
vn 0.000000 0.000000 1.000000
vn 0.000000 0.000000 -1.000000
vn 0.000000 0.000000 -1.000000
vn 0.000000 0.000000 -1.000000
vn 0.000000 0.000000 -1.000000
vn 0.000000 1.000000 0.000000
vn 0.000000 1.000000 0.000000
vn 0.000000 1.000000 0.000000
vn 0.000000 1.000000 0.000000
vn 0.000000 -1.000000 0.000000
vn 0.000000 -1.000000 0.000000
vn 0.000000 -1.000000 0.000000
vn 0.000000 -1.000000 0.000000
vn 0.000000 0.000000 1.000000
vn 0.000000 0.000000 1.000000
vn 0.000000 0.000000 1.000000
vn 0.000000 0.000000 1.000000
vn 0.000000 1.000000 0.000000
vn 0.000000 1.000000 0.000000
vn 0.000000 1.000000 0.000000
vn 0.000000 1.000000 0.000000
vn 0.000000 0.000000 -1.000000
vn 0.000000 0.000000 -1.000000
vn 0.000000 0.000000 -1.000000
vn 0.000000 0.000000 -1.000000
vn 0.000000 -1.000000 0.000000
vn 0.000000 -1.000000 0.000000
vn 0.000000 -1.000000 0.000000
vn 0.000000 -1.000000 0.000000
vn 1.000000 0.000000 0.000000
vn 1.000000 0.000000 0.000000
vn 1.000000 0.000000 0.000000
vn 1.000000 0.000000 0.000000
vn -1.000000 0.000000 0.000000
vn -1.000000 0.000000 0.000000
vn -1.000000 0.000000 0.000000
vn -1.000000 0.000000 0.000000
vn 0.000000 0.000000 1.000000
vn 0.000000 0.000000 1.000000
vn 0.000000 0.000000 1.000000
vn 0.000000 0.000000 1.000000
vn 0.000000 1.000000 0.000000
vn 0.000000 1.000000 0.000000
vn 0.000000 1.000000 0.000000
vn 0.000000 1.000000 0.000000
vn 0.000000 0.000000 -1.000000
vn 0.000000 0.000000 -1.000000
vn 0.000000 0.000000 -1.000000
vn 0.000000 0.000000 -1.000000
vn 0.000000 -1.000000 0.000000
vn 0.000000 -1.000000 0.000000
vn 0.000000 -1.000000 0.000000
vn 0.000000 -1.000000 0.000000
vn 1.000000 0.000000 0.000000
vn 1.000000 0.000000 0.000000
vn 1.000000 0.000000 0.000000
vn 1.000000 0.000000 0.000000
vn -1.000000 0.000000 0.000000
vn -1.000000 0.000000 0.000000
vn -1.000000 0.000000 0.000000
vn -1.000000 0.000000 0.000000
f 1/1/1 2/2/2 4/3/3 3/4/4
f 3/5/5 4/6/6 6/7/7 5/8/8
f 5/9/9 6/10/10 8/11/11 7/12/12
f 7/13/13 8/14/14 2/15/15 1/16/16
f 2/17/17 8/18/18 6/19/19 4/20/20
f 7/21/21 1/22/22 3/23/23 5/24/24
f 9/25/25 10/26/26 12/27/27 11/28/28
f 11/29/29 12/30/30 14/31/31 13/32/32
f 13/33/33 14/34/34 16/35/35 15/36/36
f 15/37/37 16/38/38 10/39/39 9/40/40
f 10/41/41 16/42/42 14/43/43 12/44/44
f 15/45/45 9/46/46 11/47/47 13/48/48
f 17/49/49 18/50/50 20/51/51 19/52/52
f 21/53/53 22/54/54 24/55/55 23/56/56
f 18/57/57 24/58/58 22/59/59 20/60/60
f 23/61/61 17/62/62 19/63/63 21/64/64
f 25/65/65 26/66/66 28/67/67 27/68/68
f 29/69/69 30/70/70 32/71/71 31/72/72
f 26/73/73 32/74/74 30/75/75 28/76/76
f 31/77/77 25/78/78 27/79/79 29/80/80
f 33/81/81 34/82/82 36/83/83 35/84/84
f 35/85/85 36/86/86 38/87/87 37/88/88
f 37/89/89 38/90/90 40/91/91 39/92/92
f 39/93/93 40/94/94 34/95/95 33/96/96
f 34/97/97 40/98/98 38/99/99 36/100/100
f 39/101/101 33/102/102 35/103/103 37/104/104
f 41/105/105 42/106/106 44/107/107 43/108/108
f 43/109/109 44/110/110 46/111/111 45/112/112
f 45/113/113 46/114/114 48/115/115 47/116/116
f 47/117/117 48/118/118 42/119/119 41/120/120
f 42/121/121 48/122/122 46/123/123 44/124/124
f 47/125/125 41/126/126 43/127/127 45/128/128
