# This file uses centimeters as units for non-parametric coordinates.

v 1.270813 -14.494831 0.595848
v 1.270813 11.958275 0.595848
v 8.700989 14.056549 0.595848
v 8.700989 -14.494831 0.595848
v 1.270813 -14.494831 -0.850533
v 1.270813 11.958275 -0.850533
v 8.700989 14.056549 -0.850533
v 8.700989 -14.494831 -0.850533
vt 0.005317 0.759512
vt 0.240488 0.759512
vt 0.240488 0.994683
vt 0.005317 0.994683
vt 0.005317 0.759512
vt 0.240488 0.759512
vt 0.240488 0.994683
vt 0.005317 0.994683
vn 0.000000 0.000000 1.000000
vn 0.000000 0.000000 1.000000
vn 0.000000 0.000000 1.000000
vn 0.000000 0.000000 1.000000
vn -0.000000 0.000000 -1.000000
vn -0.000000 0.000000 -1.000000
vn -0.000000 0.000000 -1.000000
vn -0.000000 0.000000 -1.000000
f 4/1/1 3/2/2 2/3/3 1/4/4
f 8/5/5 5/6/6 6/7/7 7/8/8
