# This file uses centimeters as units for non-parametric coordinates.

v -17.870337 1.192076 1.104949
v -10.793174 1.192076 1.104949
v -17.870337 10.288431 1.104949
v -10.793174 10.288431 1.104949
v -17.870337 1.192076 0.147598
v -10.793174 1.192076 0.147598
v -17.870337 10.288431 0.147598
v -10.793174 10.288431 0.147598
v -7.976474 1.192076 1.104949
v -0.899306 1.192076 1.104949
v -7.976474 10.288431 1.104949
v -0.899306 10.288431 1.104949
v -7.976474 1.192076 0.147598
v -0.899306 1.192076 0.147598
v -7.976474 10.288431 0.147598
v -0.899306 10.288431 0.147598
v -7.976474 -10.197979 1.104949
v -0.899306 -10.197979 1.104949
v -7.976474 -1.101622 1.104949
v -0.899306 -1.101622 1.104949
v -7.976474 -10.197979 0.147598
v -0.899306 -10.197979 0.147598
v -7.976474 -1.101622 0.147598
v -0.899306 -1.101622 0.147598
v -17.870337 -10.197979 1.104949
v -10.793174 -10.197979 1.104949
v -17.870337 -1.101622 1.104949
v -10.793174 -1.101622 1.104949
v -17.870337 -10.197979 0.147598
v -10.793174 -10.197979 0.147598
v -17.870337 -1.101622 0.147598
v -10.793174 -1.101622 0.147598
vt 0.004312 0.758258
vt 0.243108 0.758258
vt 0.243108 0.997054
vt 0.004312 0.997054
vt 0.004312 0.758258
vt 0.243108 0.758258
vt 0.243108 0.997054
vt 0.004312 0.997054
vt 0.004312 0.758258
vt 0.243108 0.758258
vt 0.243108 0.997054
vt 0.004312 0.997054
vt 0.004312 0.758258
vt 0.243108 0.758258
vt 0.243108 0.997054
vt 0.004312 0.997054
vt 0.004312 0.758258
vt 0.243108 0.758258
vt 0.243108 0.997054
vt 0.004312 0.997054
vt 0.004312 0.758258
vt 0.243108 0.758258
vt 0.243108 0.997054
vt 0.004312 0.997054
vt 0.004312 0.758258
vt 0.243108 0.758258
vt 0.243108 0.997054
vt 0.004312 0.997054
vt 0.004312 0.758258
vt 0.243108 0.758258
vt 0.243108 0.997054
vt 0.004312 0.997054
vn 0.000000 0.000000 1.000000
vn 0.000000 0.000000 1.000000
vn 0.000000 0.000000 1.000000
vn 0.000000 0.000000 1.000000
vn 0.000000 0.000000 -1.000000
vn 0.000000 0.000000 -1.000000
vn 0.000000 0.000000 -1.000000
vn 0.000000 0.000000 -1.000000
vn 0.000000 0.000000 1.000000
vn 0.000000 0.000000 1.000000
vn 0.000000 0.000000 1.000000
vn 0.000000 0.000000 1.000000
vn 0.000000 0.000000 -1.000000
vn 0.000000 0.000000 -1.000000
vn 0.000000 0.000000 -1.000000
vn 0.000000 0.000000 -1.000000
vn 0.000000 0.000000 1.000000
vn 0.000000 0.000000 1.000000
vn 0.000000 0.000000 1.000000
vn 0.000000 0.000000 1.000000
vn 0.000000 0.000000 -1.000000
vn 0.000000 0.000000 -1.000000
vn 0.000000 0.000000 -1.000000
vn 0.000000 0.000000 -1.000000
vn 0.000000 0.000000 1.000000
vn 0.000000 0.000000 1.000000
vn 0.000000 0.000000 1.000000
vn 0.000000 0.000000 1.000000
vn 0.000000 0.000000 -1.000000
vn 0.000000 0.000000 -1.000000
vn 0.000000 0.000000 -1.000000
vn 0.000000 0.000000 -1.000000
f 1/1/1 2/2/2 4/3/3 3/4/4
f 5/5/5 7/6/6 8/7/7 6/8/8
f 9/9/9 10/10/10 12/11/11 11/12/12
f 13/13/13 15/14/14 16/15/15 14/16/16
f 17/17/17 18/18/18 20/19/19 19/20/20
f 21/21/21 23/22/22 24/23/23 22/24/24
f 25/25/25 26/26/26 28/27/27 27/28/28
f 29/29/29 31/30/30 32/31/31 30/32/32
