# This file uses centimeters as units for non-parametric coordinates.

v -50.771351 25.195568 65.226463
v 37.682884 79.063812 65.226463
v -50.771351 47.169151 65.226463
v 37.682884 99.892624 65.226463
v -50.771351 47.169151 62.360916
v 37.682884 99.892624 62.360916
v -50.771351 25.195568 62.360916
v 37.682884 79.063812 62.360916
v -54.291035 25.195568 62.360916
v -54.291035 25.195568 65.339676
v -54.291035 47.169151 65.339676
v -54.291035 47.169151 62.360916
v -50.771351 27.345240 23.550812
v -50.771351 5.371655 23.550812
v -54.291035 5.371655 23.550812
v -54.291035 27.345240 23.550812
v -55.762234 24.339170 62.150734
v -55.762234 34.152714 62.150734
v -81.281570 34.152714 62.150734
v -81.281570 24.339170 62.150734
v -55.762234 24.339170 98.511185
v -55.762234 34.152714 98.511185
v -81.281563 34.152714 98.511185
v -81.281563 24.339170 98.511185
v 38.773495 76.688095 62.150734
v 38.773472 82.046730 62.150734
v 38.773468 82.046730 98.511185
v 38.773495 76.688095 98.511185
v -53.473591 10.041113 16.964525
v -53.473591 10.573571 16.964525
v -80.364983 10.573571 17.016531
v -80.364983 10.041113 17.016531
v -53.369854 34.152714 62.150734
v -53.369854 24.300554 62.150734
v -80.261253 34.152714 62.150734
v -80.261253 24.300554 62.150734
v 6.005852 8.511005 87.279465
v 6.005852 8.511005 73.138931
v 6.005852 60.434814 73.138931
v 6.005852 60.434814 87.279465
v -2.413078 8.511005 73.138931
v -2.413078 56.647465 73.138931
v -2.413078 8.511005 87.279465
v -2.413078 56.647465 87.279465
v -50.771351 25.195572 97.549255
v 37.682884 79.063812 97.549255
v -50.771351 47.169159 97.549255
v 37.682884 99.892639 97.549255
v -50.771351 47.169159 94.656776
v 37.682884 99.892639 94.656776
v -50.771351 25.195572 94.656776
v 37.682884 79.063812 94.656776
v -79.185303 25.195572 91.721169
v -77.228500 25.195572 97.549255
v -77.228500 47.169159 97.549255
v -79.185303 47.169159 91.721169
v -82.061188 25.195572 91.721169
v -82.061188 25.195572 97.549255
v -82.061188 47.169159 97.549255
v -82.061188 47.169159 91.721169
v -79.185303 47.169159 61.851326
v -79.185303 25.195572 61.851326
v -82.061188 25.195572 61.851326
v -82.061188 47.169159 61.851326
v -79.185303 27.169079 23.752167
v -79.185303 5.195492 23.752167
v -82.061188 5.195492 23.752167
v -82.061188 27.169079 23.752167
vt 0.205805 0.823972
vt 0.368235 0.823972
vt 0.368235 0.986403
vt 0.205805 0.986403
vt 0.205805 0.823972
vt 0.368235 0.823972
vt 0.368235 0.986403
vt 0.205805 0.986403
vt 0.205805 0.823972
vt 0.368235 0.823972
vt 0.368235 0.986403
vt 0.205805 0.986403
vt 0.205805 0.823972
vt 0.368235 0.823972
vt 0.368235 0.986403
vt 0.205805 0.986403
vt 0.205805 0.823972
vt 0.368235 0.823972
vt 0.368235 0.986403
vt 0.205805 0.986403
vt 0.205805 0.823972
vt 0.368235 0.823972
vt 0.368235 0.986403
vt 0.205805 0.986403
vt 0.205805 0.823972
vt 0.368235 0.823972
vt 0.368235 0.986403
vt 0.205805 0.986403
vt 0.205805 0.823972
vt 0.368235 0.823972
vt 0.368235 0.986403
vt 0.205805 0.986403
vt 0.205805 0.823972
vt 0.368235 0.823972
vt 0.368235 0.986403
vt 0.205805 0.986403
vt 0.205805 0.823972
vt 0.368235 0.823972
vt 0.368235 0.986403
vt 0.205805 0.986403
vt 0.205805 0.823972
vt 0.368235 0.823972
vt 0.368235 0.986403
vt 0.205805 0.986403
vt 0.205805 0.823972
vt 0.368235 0.823972
vt 0.368235 0.986403
vt 0.205805 0.986403
vt 0.205805 0.823972
vt 0.368235 0.823972
vt 0.368235 0.986403
vt 0.205805 0.986403
vt 0.205805 0.823972
vt 0.368235 0.823972
vt 0.368235 0.986403
vt 0.205805 0.986403
vt 0.625000 0.000000
vt 0.625000 0.250000
vt 0.875000 0.250000
vt 0.875000 0.000000
vt 0.625000 0.000000
vt 0.625000 0.250000
vt 0.875000 0.250000
vt 0.875000 0.000000
vt 0.375000 0.000000
vt 0.375000 0.250000
vt 0.625000 0.250000
vt 0.625000 0.000000
vt 0.375000 0.500000
vt 0.625000 0.500000
vt 0.375000 0.750000
vt 0.625000 0.750000
vt 0.375000 1.000000
vt 0.625000 1.000000
vt 0.875000 0.250000
vt 0.875000 0.000000
vt 0.375000 0.000000
vt 0.375000 0.250000
vt 0.625000 0.250000
vt 0.625000 0.000000
vt 0.375000 0.500000
vt 0.625000 0.500000
vt 0.375000 0.750000
vt 0.625000 0.750000
vt 0.001993 0.000000
vt 1.000000 0.000000
vt 0.999058 0.691395
vt 0.000000 0.691392
vt 0.001358 0.750597
vt 0.001358 0.811766
vt 0.186002 0.811766
vt 0.186002 0.750596
vt 0.001358 0.750597
vt 0.001358 0.811766
vt 0.186002 0.811766
vt 0.186002 0.750596
vt 0.001358 0.750597
vt 0.001358 0.811766
vt 0.186002 0.811766
vt 0.186002 0.750596
vt 0.001358 0.750597
vt 0.001358 0.811766
vt 0.186002 0.811766
vt 0.186002 0.750596
vt 0.205805 0.823972
vt 0.368235 0.823972
vt 0.368235 0.986403
vt 0.205805 0.986403
vt 0.205805 0.823972
vt 0.368235 0.823972
vt 0.368235 0.986403
vt 0.205805 0.986403
vt 0.205805 0.823972
vt 0.368235 0.823972
vt 0.368235 0.986403
vt 0.205805 0.986403
vt 0.205805 0.823972
vt 0.368235 0.823972
vt 0.368235 0.986403
vt 0.205805 0.986403
vt 0.205805 0.823972
vt 0.368235 0.823972
vt 0.368235 0.986403
vt 0.205805 0.986403
vt 0.205805 0.823972
vt 0.368235 0.823972
vt 0.368235 0.986403
vt 0.205805 0.986403
vt 0.205805 0.823972
vt 0.368235 0.823972
vt 0.368235 0.986403
vt 0.205805 0.986403
vt 0.205805 0.823972
vt 0.368235 0.823972
vt 0.368235 0.986403
vt 0.205805 0.986403
vt 0.205805 0.823972
vt 0.368235 0.823972
vt 0.368235 0.986403
vt 0.205805 0.986403
vt 0.205805 0.823972
vt 0.368235 0.823972
vt 0.368235 0.986403
vt 0.205805 0.986403
vt 0.205805 0.823972
vt 0.368235 0.823972
vt 0.368235 0.986403
vt 0.205805 0.986403
vt 0.205805 0.823972
vt 0.368235 0.823972
vt 0.368235 0.986403
vt 0.205805 0.986403
vt 0.205805 0.823972
vt 0.368235 0.823972
vt 0.368235 0.986403
vt 0.205805 0.986403
vt 0.205805 0.823972
vt 0.368235 0.823972
vt 0.368235 0.986403
vt 0.205805 0.986403
vt 0.205805 0.823972
vt 0.368235 0.823972
vt 0.368235 0.986403
vt 0.205805 0.986403
vt 0.205805 0.823972
vt 0.368235 0.823972
vt 0.368235 0.986403
vt 0.205805 0.986403
vt 0.205805 0.823972
vt 0.368235 0.823972
vt 0.368235 0.986403
vt 0.205805 0.986403
vt 0.205805 0.823972
vt 0.368235 0.823972
vt 0.368235 0.986403
vt 0.205805 0.986403
vt 0.205805 0.823972
vt 0.368235 0.823972
vt 0.368235 0.986403
vt 0.205805 0.986403
vt 0.205805 0.823972
vt 0.368235 0.823972
vt 0.368235 0.986403
vt 0.205805 0.986403
vt 0.205805 0.823972
vt 0.368235 0.823972
vt 0.368235 0.986403
vt 0.205805 0.986403
vt 0.205805 0.823972
vt 0.368235 0.823972
vt 0.368235 0.986403
vt 0.205805 0.986403
vn 0.000000 0.000000 1.000000
vn 0.000000 0.000000 1.000000
vn 0.000000 0.000000 1.000000
vn 0.000000 0.000000 1.000000
vn -0.512001 0.858985 0.000000
vn -0.512001 0.858985 0.000000
vn -0.512001 0.858985 0.000000
vn -0.512001 0.858985 0.000000
vn 0.000000 0.000000 -1.000000
vn 0.000000 0.000000 -1.000000
vn 0.000000 0.000000 -1.000000
vn 0.000000 0.000000 -1.000000
vn 0.520134 -0.854085 0.000000
vn 0.520134 -0.854085 0.000000
vn 0.520134 -0.854085 0.000000
vn 0.520134 -0.854085 0.000000
vn 1.000000 0.000000 0.000000
vn 1.000000 0.000000 0.000000
vn 1.000000 0.000000 0.000000
vn 1.000000 0.000000 0.000000
vn -1.000000 0.000000 0.000000
vn -1.000000 0.000000 0.000000
vn -1.000000 0.000000 0.000000
vn -1.000000 0.000000 0.000000
vn 0.000000 -1.000000 0.000000
vn 0.000000 -1.000000 0.000000
vn 0.000000 -1.000000 0.000000
vn 0.000000 -1.000000 0.000000
vn 0.032149 0.000000 0.999483
vn 0.032149 0.000000 0.999483
vn 0.032149 0.000000 0.999483
vn 0.032149 0.000000 0.999483
vn 0.000000 1.000000 0.000000
vn 0.000000 1.000000 0.000000
vn 0.000000 1.000000 0.000000
vn 0.000000 1.000000 0.000000
vn 0.000000 0.000000 -1.000000
vn 0.000000 0.000000 -1.000000
vn 0.000000 0.000000 -1.000000
vn 0.000000 0.000000 -1.000000
vn 1.000000 0.000000 0.000000
vn 1.000000 0.000000 0.000000
vn 1.000000 0.000000 0.000000
vn 1.000000 0.000000 0.000000
vn 0.000000 -0.890550 0.454886
vn 0.000000 -0.890550 0.454886
vn 0.000000 -0.890550 0.454886
vn 0.000000 -0.890550 0.454886
vn -1.000000 0.000000 0.000000
vn -1.000000 0.000000 0.000000
vn -1.000000 0.000000 0.000000
vn -1.000000 0.000000 0.000000
vn 0.000000 0.890550 -0.454886
vn 0.000000 0.890550 -0.454886
vn 0.000000 0.890550 -0.454886
vn 0.000000 0.890550 -0.454886
vn 0.000000 0.000000 1.000000
vn 0.000000 0.000000 1.000000
vn 0.000000 0.000000 1.000000
vn 0.000000 0.000000 1.000000
vn 1.000000 0.000000 0.000000
vn 1.000000 0.000000 0.000000
vn 1.000000 0.000000 0.000000
vn 1.000000 0.000000 0.000000
vn 0.000000 1.000000 0.000000
vn 0.000000 1.000000 0.000000
vn 0.000000 1.000000 0.000000
vn 0.000000 1.000000 0.000000
vn -1.000000 0.000000 0.000000
vn -1.000000 0.000000 0.000000
vn -1.000000 0.000000 0.000000
vn -1.000000 0.000000 0.000000
vn 0.000000 -1.000000 0.000000
vn 0.000000 -1.000000 0.000000
vn 0.000000 -1.000000 0.000000
vn 0.000000 -1.000000 0.000000
vn 0.000000 0.000000 -1.000000
vn 0.000000 0.000000 -1.000000
vn 0.000000 0.000000 -1.000000
vn 0.000000 0.000000 -1.000000
vn -0.451934 0.892051 -0.000000
vn -0.451934 0.892051 -0.000000
vn -0.451934 0.892051 -0.000000
vn -0.451934 0.892051 -0.000000
vn -0.000001 0.000000 1.000000
vn -0.000001 0.000000 1.000000
vn -0.000001 0.000000 1.000000
vn -0.000001 0.000000 1.000000
vn 0.484434 -0.874828 0.000000
vn 0.484434 -0.874828 0.000000
vn 0.484434 -0.874828 0.000000
vn 0.484434 -0.874828 0.000000
vn 1.000000 0.000005 0.000000
vn 1.000000 0.000005 0.000000
vn 1.000000 0.000005 0.000000
vn 1.000000 0.000005 0.000000
vn 0.999997 0.000000 -0.002296
vn 0.999997 0.000000 -0.002296
vn 0.999997 0.000000 -0.002296
vn 0.999997 0.000000 -0.002296
vn -0.000448 0.886446 -0.462832
vn -0.000448 0.886446 -0.462832
vn -0.000448 0.886446 -0.462832
vn -0.000448 0.886446 -0.462832
vn -0.999997 0.000000 0.002298
vn -0.999997 0.000000 0.002298
vn -0.999997 0.000000 0.002298
vn -0.999997 0.000000 0.002298
vn 0.000291 -0.953593 0.301099
vn 0.000291 -0.953593 0.301099
vn 0.000291 -0.953593 0.301099
vn 0.000291 -0.953593 0.301099
vn -0.001934 0.000000 -0.999998
vn -0.001934 0.000000 -0.999998
vn -0.001934 0.000000 -0.999998
vn -0.001934 0.000000 -0.999998
vn 0.000000 0.000000 1.000000
vn 0.000000 0.000000 1.000000
vn 0.000000 0.000000 1.000000
vn 0.000000 0.000000 1.000000
vn 1.000000 0.000000 0.000000
vn 1.000000 0.000000 0.000000
vn 1.000000 0.000000 0.000000
vn 1.000000 0.000000 0.000000
vn 0.000000 0.000000 -1.000000
vn 0.000000 0.000000 -1.000000
vn 0.000000 0.000000 -1.000000
vn 0.000000 0.000000 -1.000000
vn -1.000000 0.000000 0.000000
vn -1.000000 0.000000 0.000000
vn -1.000000 0.000000 0.000000
vn -1.000000 0.000000 0.000000
vn -0.000001 0.000000 1.000000
vn -0.000001 0.000000 1.000000
vn -0.000001 0.000000 1.000000
vn -0.000001 0.000000 1.000000
vn 0.000000 0.000000 1.000000
vn 0.000000 0.000000 1.000000
vn 0.000000 0.000000 1.000000
vn 0.000000 0.000000 1.000000
vn -0.512001 0.858985 0.000000
vn -0.512001 0.858985 0.000000
vn -0.512001 0.858985 0.000000
vn -0.512001 0.858985 0.000000
vn 0.000000 0.000000 -1.000000
vn 0.000000 0.000000 -1.000000
vn 0.000000 0.000000 -1.000000
vn 0.000000 0.000000 -1.000000
vn 0.520133 -0.854085 0.000000
vn 0.520133 -0.854085 0.000000
vn 0.520133 -0.854085 0.000000
vn 0.520133 -0.854085 0.000000
vn 1.000000 0.000000 0.000000
vn 1.000000 0.000000 0.000000
vn 1.000000 0.000000 0.000000
vn 1.000000 0.000000 0.000000
vn -1.000000 0.000000 0.000000
vn -1.000000 0.000000 0.000000
vn -1.000000 0.000000 0.000000
vn -1.000000 0.000000 0.000000
vn 0.000000 -1.000000 0.000000
vn 0.000000 -1.000000 0.000000
vn 0.000000 -1.000000 0.000000
vn 0.000000 -1.000000 0.000000
vn 0.000000 0.000000 1.000000
vn 0.000000 0.000000 1.000000
vn 0.000000 0.000000 1.000000
vn 0.000000 0.000000 1.000000
vn 0.000000 1.000000 -0.000001
vn 0.000000 1.000000 -0.000001
vn 0.000000 1.000000 -0.000001
vn 0.000000 1.000000 -0.000001
vn 0.102769 0.000000 -0.994705
vn 0.102769 0.000000 -0.994705
vn 0.102769 0.000000 -0.994705
vn 0.102769 0.000000 -0.994705
vn 0.000000 -1.000000 0.000000
vn 0.000000 -1.000000 0.000000
vn 0.000000 -1.000000 0.000000
vn 0.000000 -1.000000 0.000000
vn 0.000000 0.000000 1.000000
vn 0.000000 0.000000 1.000000
vn 0.000000 0.000000 1.000000
vn 0.000000 0.000000 1.000000
vn 0.000000 1.000000 0.000000
vn 0.000000 1.000000 0.000000
vn 0.000000 1.000000 0.000000
vn 0.000000 1.000000 0.000000
vn 0.000000 0.000000 -1.000000
vn 0.000000 0.000000 -1.000000
vn 0.000000 0.000000 -1.000000
vn 0.000000 0.000000 -1.000000
vn 1.000000 0.000000 0.000000
vn 1.000000 0.000000 0.000000
vn 1.000000 0.000000 0.000000
vn 1.000000 0.000000 0.000000
vn 0.000000 -1.000000 0.000000
vn 0.000000 -1.000000 0.000000
vn 0.000000 -1.000000 0.000000
vn 0.000000 -1.000000 0.000000
vn -1.000000 0.000000 0.000000
vn -1.000000 0.000000 0.000000
vn -1.000000 0.000000 0.000000
vn -1.000000 0.000000 0.000000
vn 0.000000 1.000000 0.000000
vn 0.000000 1.000000 0.000000
vn 0.000000 1.000000 0.000000
vn 0.000000 1.000000 0.000000
vn 1.000000 0.000000 0.000000
vn 1.000000 0.000000 0.000000
vn 1.000000 0.000000 0.000000
vn 1.000000 0.000000 0.000000
vn 0.000000 -0.885417 0.464799
vn 0.000000 -0.885417 0.464799
vn 0.000000 -0.885417 0.464799
vn 0.000000 -0.885417 0.464799
vn -1.000000 0.000000 0.000000
vn -1.000000 0.000000 0.000000
vn -1.000000 0.000000 0.000000
vn -1.000000 0.000000 0.000000
vn 0.000000 0.885417 -0.464799
vn 0.000000 0.885417 -0.464799
vn 0.000000 0.885417 -0.464799
vn 0.000000 0.885417 -0.464799
f 1/1/1 2/2/2 4/3/3 3/4/4
f 3/5/5 4/6/6 6/7/7 5/8/8
f 5/9/9 6/10/10 8/11/11 7/12/12
f 7/13/13 8/14/14 2/15/15 1/16/16
f 2/17/17 8/18/18 6/19/19 4/20/20
f 9/21/21 10/22/22 11/23/23 12/24/24
f 7/25/25 1/26/26 10/27/27 9/28/28
f 1/29/29 3/30/30 11/31/31 10/32/32
f 3/33/33 5/34/34 12/35/35 11/36/36
f 13/37/37 14/38/38 15/39/39 16/40/40
f 5/41/41 7/42/42 14/43/43 13/44/44
f 7/45/45 9/46/46 15/47/47 14/48/48
f 9/49/49 12/50/50 16/51/51 15/52/52
f 12/53/53 5/54/54 13/55/55 16/56/56
f 21/57/57 22/58/58 23/59/59 24/60/60
f 17/61/61 18/62/62 22/58/63 21/57/64
f 18/62/65 19/63/66 23/59/67 22/58/68
f 19/63/69 20/64/70 24/60/71 23/59/72
f 20/64/73 17/61/74 21/57/75 24/60/76
f 17/65/77 18/66/78 26/67/79 25/68/80
f 18/66/81 22/69/82 27/70/83 26/67/84
f 22/69/85 21/71/86 28/72/87 27/70/88
f 21/71/89 17/73/90 25/74/91 28/72/92
f 25/68/93 26/67/94 27/75/95 28/76/96
f 29/77/97 30/78/98 33/79/99 34/80/100
f 30/78/101 31/81/102 35/82/103 33/79/104
f 31/81/105 32/83/106 36/84/107 35/82/108
f 36/85/109 32/86/110 29/87/111 34/88/112
f 31/81/113 30/78/114 29/87/115 32/83/116
f 36/85/117 34/80/118 33/79/119 35/82/120
f 37/89/121 38/90/122 39/91/123 40/92/124
f 38/93/125 41/94/126 42/95/127 39/96/128
f 41/97/129 43/98/130 44/99/131 42/100/132
f 40/101/133 44/102/134 43/103/135 37/104/136
f 45/105/137 46/106/138 48/107/139 47/108/140
f 47/109/141 48/110/142 50/111/143 49/112/144
f 49/113/145 50/114/146 52/115/147 51/116/148
f 51/117/149 52/118/150 46/119/151 45/120/152
f 46/121/153 52/122/154 50/123/155 48/124/156
f 57/125/157 58/126/158 59/127/159 60/128/160
f 51/129/161 45/130/162 54/131/163 53/132/164
f 45/133/165 47/134/166 55/135/167 54/136/168
f 47/137/169 49/138/170 56/139/171 55/140/172
f 49/141/173 51/142/174 53/143/175 56/144/176
f 53/145/177 54/146/178 58/147/179 57/148/180
f 54/149/181 55/150/182 59/151/183 58/152/184
f 55/153/185 56/154/186 60/155/187 59/156/188
f 65/157/189 66/158/190 67/159/191 68/160/192
f 56/161/193 53/162/194 62/163/195 61/164/196
f 53/165/197 57/166/198 63/167/199 62/168/200
f 57/169/201 60/170/202 64/171/203 63/172/204
f 60/173/205 56/174/206 61/175/207 64/176/208
f 61/177/209 62/178/210 66/179/211 65/180/212
f 62/181/213 63/182/214 67/183/215 66/184/216
f 63/185/217 64/186/218 68/187/219 67/188/220
f 64/189/221 61/190/222 65/191/223 68/192/224
