# This file uses centimeters as units for non-parametric coordinates.

v 0.000000 -10.843691 1.109514
v 0.000000 10.843693 1.109514
v 0.000000 10.843693 -1.109511
v 0.000000 -10.843691 -1.109511
v 18.776016 28.983154 -1.109511
v 18.776016 7.295773 -1.109511
v 18.776016 7.295773 1.109514
v 18.776016 28.983154 1.109514
v -18.776016 -28.983154 1.109514
v -18.776016 -7.295765 1.109514
v -18.776016 -7.295765 -1.109511
v -18.776016 -28.983154 -1.109511
v 0.000000 -17.681629 -1.109511
v 0.000000 -17.681629 1.109514
v 18.776016 0.457832 -1.109511
v 18.776016 0.457832 1.109514
v -11.655640 -28.942107 -1.109511
v -11.655640 -28.942107 1.109514
v -11.655640 -22.104168 -1.109511
v -11.655640 -0.416779 -1.109511
v -11.655640 -0.416779 1.109514
v -11.655640 -22.104168 1.109514
vt 0.498091 0.813294
vt 0.376730 0.813294
vt 0.433519 0.812454
vt 0.433519 0.998115
vt 0.498789 0.998439
vt 0.376032 0.998439
vt 0.469787 0.998049
vt 0.434206 0.998049
vt 0.498091 0.969440
vt 0.469787 0.843550
vt 0.376730 0.969440
vt 0.433519 0.812454
vt 0.433519 0.998115
vt 0.376032 0.842963
vt 0.498789 0.842963
vt 0.434206 0.843550
vt 0.498091 0.813294
vt 0.498091 0.969440
vt 0.376730 0.969440
vt 0.376730 0.813294
vt 0.433519 0.812454
vt 0.433519 0.998115
vt 0.433519 0.812454
vt 0.433519 0.998115
vt 0.498789 0.998439
vt 0.376032 0.998439
vt 0.376032 0.842963
vt 0.498789 0.842963
vt 0.469787 0.998049
vt 0.434206 0.998049
vt 0.434206 0.843550
vt 0.469787 0.843550
vt 0.469325 0.814382
vt 0.434494 0.814382
vt 0.434494 0.997968
vt 0.469325 0.997968
vt 0.404046 0.998885
vt 0.404046 0.842658
vt 0.450368 0.842658
vt 0.450368 0.998885
vt 0.450368 0.969262
vt 0.404046 0.969262
vt 0.404046 0.842658
vt 0.450368 0.842658
vt 0.433519 0.812454
vt 0.476205 0.812454
vt 0.476205 0.998115
vt 0.476205 0.812454
vt 0.476205 0.998115
vt 0.433519 0.998115
vt 0.476205 0.812454
vt 0.476205 0.998115
vt 0.476205 0.812454
vt 0.476205 0.998115
vt 0.476205 0.962911
vt 0.476205 0.847658
vt 0.435937 0.822906
vt 0.435937 0.998182
vt 0.472528 0.998182
vt 0.472528 0.822907
vt 0.376730 0.872509
vt 0.433519 0.927707
vt 0.498091 0.872509
vt 0.469787 0.939459
vt 0.498789 0.939478
vt 0.434206 0.939459
vt 0.433519 0.882862
vt 0.376032 0.939478
vn -0.000001 0.000000 -1.000000
vn -0.000001 0.000000 -1.000000
vn -0.000001 0.000000 -1.000000
vn -0.000001 0.000000 -1.000000
vn 0.694806 -0.719197 0.000000
vn 0.694806 -0.719197 0.000000
vn 0.694806 -0.719197 0.000000
vn 0.694806 -0.719197 0.000000
vn 0.000000 0.000000 1.000000
vn 0.000000 0.000000 1.000000
vn 0.000000 0.000000 1.000000
vn 0.000000 0.000000 1.000000
vn -0.694806 0.719197 0.000000
vn -0.694806 0.719197 0.000000
vn -0.694806 0.719197 0.000000
vn -0.694806 0.719197 0.000000
vn 0.000002 0.000000 -1.000000
vn 0.000002 0.000000 -1.000000
vn -0.000000 0.000000 -1.000000
vn 0.000001 0.000000 -1.000000
vn 0.694811 -0.719193 0.000000
vn 0.694811 -0.719193 0.000000
vn 0.694811 -0.719193 0.000000
vn 0.694811 -0.719193 0.000000
vn 0.000000 0.000000 1.000000
vn 0.000000 0.000000 1.000000
vn 0.000000 0.000000 1.000000
vn 0.000000 0.000000 1.000000
vn -0.694811 0.719193 0.000000
vn -0.694811 0.719193 0.000000
vn -0.694811 0.719192 0.000000
vn -0.694811 0.719192 0.000000
vn -1.000000 0.000000 0.000000
vn -1.000000 0.000000 0.000000
vn -1.000000 0.000000 0.000000
vn -1.000000 0.000000 0.000000
vn 0.000004 0.000000 -1.000000
vn 0.000004 0.000000 -1.000000
vn 0.000004 0.000000 -1.000000
vn 0.000004 0.000000 -1.000000
vn 1.000000 0.000000 0.000000
vn 1.000000 0.000000 0.000000
vn 1.000000 0.000000 0.000000
vn 1.000000 0.000000 0.000000
vn 0.000000 0.000000 1.000000
vn 0.000000 0.000000 1.000000
vn 0.000000 0.000000 1.000000
vn 0.000000 0.000000 1.000000
vn 0.000000 0.000000 -1.000000
vn 0.000000 0.000000 -1.000000
vn -0.000002 0.000000 -1.000000
vn -0.000000 0.000000 -1.000000
vn 0.000000 0.000000 1.000000
vn 0.000000 0.000000 1.000000
vn 0.000000 0.000000 1.000000
vn 0.000001 0.000000 1.000000
vn 1.000000 0.000000 0.000000
vn 1.000000 0.000000 0.000000
vn 1.000000 0.000000 0.000000
vn 1.000000 0.000000 0.000000
vn -0.000005 0.000000 -1.000000
vn -0.000002 0.000000 -1.000000
vn -0.000002 0.000000 -1.000000
vn -0.694811 0.719192 0.000000
vn -0.694811 0.719192 0.000000
vn 0.000000 0.000000 1.000000
vn 0.000000 0.000000 1.000000
vn 0.000002 0.000000 1.000000
f 3/1/1 5/9/2 6/11/3 4/2/4
f 14/40/5 13/37/6 15/38/7 16/39/8
f 2/5/9 1/6/10 7/14/11 8/15/12
f 3/7/13 2/8/14 8/16/15 5/10/16
f 3/18/17 4/19/18 19/61/19 20/63/20
f 18/41/21 17/42/22 13/43/23 14/44/24
f 1/27/25 2/28/26 21/65/27 22/68/28
f 2/31/29 3/32/30 20/64/31 21/66/32
f 12/33/33 9/34/34 10/35/35 11/36/36
f 4/4/37 6/45/38 15/46/39 13/47/40
f 6/12/41 7/48/42 16/49/43 15/50/44
f 7/13/45 1/3/46 14/51/47 16/52/48
f 4/23/49 13/53/50 17/55/51 19/62/52
f 14/54/53 1/24/54 22/67/55 18/56/56
f 6/57/57 5/58/58 8/59/59 7/60/60
f 19/62/52 17/55/51 12/22/61
f 20/63/20 19/61/19 12/20/62 11/17/63
f 21/66/32 20/64/31 11/29/64 10/30/65
f 22/68/28 21/65/27 10/25/66 9/26/67
f 18/56/56 22/67/55 9/21/68
