# This file uses centimeters as units for non-parametric coordinates.

v 21.573669 21.118864 -17.558235
v 21.573669 21.118864 17.558235
v -21.573669 -21.118864 -17.558235
v -21.573669 -21.118864 17.558235
v 21.573669 8.462305 -17.558235
v 21.573669 8.462305 17.558235
v -8.467941 -20.945987 -17.558235
v -8.467941 -20.945987 17.558235
vt 0.871779 0.875926
vt 0.871779 0.999009
vt 0.688733 0.999009
vt 0.688733 0.875926
vt 0.871779 0.875926
vt 0.688733 0.875926
vt 0.688733 0.999009
vt 0.871779 0.999009
vn -0.699534 0.714599 0.000000
vn -0.699534 0.714599 0.000000
vn -0.699534 0.714599 0.000000
vn -0.699534 0.714599 0.000000
vn 0.699534 -0.714599 0.000000
vn 0.699534 -0.714599 0.000000
vn 0.699534 -0.714599 0.000000
vn 0.699534 -0.714599 0.000000
f 2/1/1 1/2/2 3/3/3 4/4/4
f 6/5/5 8/6/6 7/7/7 5/8/8
