# This file uses centimeters as units for non-parametric coordinates.

v 0.000000 -7.424722 1.109514
v 0.000000 14.262664 1.109514
v 0.000000 14.262664 -1.109511
v 0.000000 -7.424722 -1.109511
v 18.776016 32.402122 -1.109511
v 18.776016 10.714736 -1.109511
v 18.776016 10.714736 1.109514
v 18.776016 32.402122 1.109514
v -18.776016 -25.564187 1.109514
v -18.776016 -3.876801 1.109514
v -18.776016 -3.876801 -1.109511
v -18.776016 -25.564187 -1.109511
v 0.000000 -14.262662 -1.109511
v 0.000000 -14.262662 1.109514
v 18.776016 3.876800 -1.109511
v 18.776016 3.876800 1.109514
v -18.776016 -32.402123 -1.109511
v -18.776016 -32.402123 1.109514
vt 0.498091 0.813294
vt 0.376730 0.813294
vt 0.433519 0.812454
vt 0.433519 0.998115
vt 0.498789 0.998439
vt 0.376032 0.998439
vt 0.469787 0.998049
vt 0.434206 0.998049
vt 0.498091 0.969440
vt 0.469787 0.843550
vt 0.376730 0.969440
vt 0.433519 0.812454
vt 0.433519 0.998115
vt 0.376032 0.842963
vt 0.498789 0.842963
vt 0.434206 0.843550
vt 0.498091 0.813294
vt 0.498091 0.969440
vt 0.376730 0.969440
vt 0.376730 0.813294
vt 0.433519 0.812454
vt 0.433519 0.998115
vt 0.433519 0.812454
vt 0.433519 0.998115
vt 0.498789 0.998439
vt 0.376032 0.998439
vt 0.376032 0.842963
vt 0.498789 0.842963
vt 0.469787 0.998049
vt 0.434206 0.998049
vt 0.434206 0.843550
vt 0.469787 0.843550
vt 0.469325 0.814382
vt 0.434494 0.814382
vt 0.434494 0.997968
vt 0.469325 0.997968
vt 0.404046 0.998885
vt 0.404046 0.842658
vt 0.450368 0.842658
vt 0.450368 0.998885
vt 0.450368 0.998885
vt 0.404046 0.998885
vt 0.404046 0.842658
vt 0.450368 0.842658
vt 0.433519 0.812454
vt 0.476205 0.812454
vt 0.476205 0.998115
vt 0.476205 0.812454
vt 0.476205 0.998115
vt 0.433519 0.998115
vt 0.476205 0.812454
vt 0.476205 0.998115
vt 0.433519 0.812454
vt 0.476205 0.812454
vt 0.476205 0.998115
vt 0.433519 0.998115
vt 0.476205 0.812454
vt 0.476205 0.998115
vt 0.476205 0.998115
vt 0.476205 0.812454
vt 0.435937 0.822906
vt 0.435937 0.998182
vt 0.472528 0.998182
vt 0.472528 0.822907
vn 0.000000 0.000000 -1.000000
vn 0.000000 0.000000 -1.000000
vn 0.000000 0.000000 -1.000000
vn 0.000000 0.000000 -1.000000
vn 0.694807 -0.719197 0.000000
vn 0.694807 -0.719197 0.000000
vn 0.694807 -0.719197 0.000000
vn 0.694807 -0.719197 0.000000
vn 0.000000 0.000000 1.000000
vn 0.000000 0.000000 1.000000
vn 0.000000 0.000000 1.000000
vn 0.000000 0.000000 1.000000
vn -0.694811 0.719192 0.000000
vn -0.694811 0.719192 0.000000
vn -0.694811 0.719192 0.000000
vn -0.694811 0.719192 0.000000
vn 0.000000 0.000000 -1.000000
vn 0.000000 0.000000 -1.000000
vn 0.000000 0.000000 -1.000000
vn 0.000000 0.000000 -1.000000
vn 0.694806 -0.719197 0.000000
vn 0.694806 -0.719197 0.000000
vn 0.694806 -0.719197 0.000000
vn 0.694806 -0.719197 0.000000
vn 0.000000 0.000000 1.000000
vn 0.000000 0.000000 1.000000
vn 0.000000 0.000000 1.000000
vn 0.000000 0.000000 1.000000
vn -0.694811 0.719193 0.000000
vn -0.694811 0.719193 0.000000
vn -0.694811 0.719193 0.000000
vn -0.694811 0.719193 0.000000
vn -1.000000 0.000000 0.000000
vn -1.000000 0.000000 0.000000
vn -1.000000 0.000000 0.000000
vn -1.000000 0.000000 0.000000
vn 0.000002 0.000000 -1.000000
vn 0.000002 0.000000 -1.000000
vn 0.000002 0.000000 -1.000000
vn 0.000002 0.000000 -1.000000
vn 1.000000 0.000000 0.000000
vn 1.000000 0.000000 0.000000
vn 1.000000 0.000000 0.000000
vn 1.000000 0.000000 0.000000
vn 0.000004 0.000000 1.000000
vn 0.000004 0.000000 1.000000
vn 0.000004 0.000000 1.000000
vn 0.000004 0.000000 1.000000
vn -1.000000 0.000000 0.000000
vn -1.000000 0.000000 0.000000
vn -1.000000 0.000000 0.000000
vn -1.000000 0.000000 0.000000
vn 0.000000 0.000000 -1.000000
vn 0.000000 0.000000 -1.000000
vn 0.000000 0.000000 -1.000000
vn 0.000000 0.000000 -1.000000
vn 0.000000 0.000000 1.000000
vn 0.000000 0.000000 1.000000
vn 0.000000 0.000000 1.000000
vn 0.000000 0.000000 1.000000
vn 1.000000 0.000000 0.000000
vn 1.000000 0.000000 0.000000
vn 1.000000 0.000000 0.000000
vn 1.000000 0.000000 0.000000
f 3/1/1 5/9/2 6/11/3 4/2/4
f 14/40/5 13/37/6 15/38/7 16/39/8
f 2/5/9 1/6/10 7/14/11 8/15/12
f 3/7/13 2/8/14 8/16/15 5/10/16
f 3/18/17 4/19/18 12/20/19 11/17/20
f 17/42/21 13/43/22 14/44/23 18/41/24
f 1/27/25 2/28/26 10/25/27 9/26/28
f 2/31/29 3/32/30 11/29/31 10/30/32
f 12/33/33 9/34/34 10/35/35 11/36/36
f 4/4/37 6/45/38 15/46/39 13/47/40
f 6/12/41 7/48/42 16/49/43 15/50/44
f 7/13/45 1/3/46 14/51/47 16/52/48
f 9/53/49 12/54/50 17/55/51 18/56/52
f 4/23/53 13/57/54 17/59/55 12/22/56
f 14/58/57 1/24/58 9/21/59 18/60/60
f 6/61/61 5/62/62 8/63/63 7/64/64
