# This file uses centimeters as units for non-parametric coordinates.

v -37.512047 10.000000 0.000000
v 0.000038 10.000000 0.000000
v 0.000008 10.000000 -37.512085
v -37.512062 10.000000 -37.512085
v -37.512047 10.000000 37.512085
v 0.000038 10.000000 37.512085
v 37.512062 10.000000 0.000000
v 37.512062 10.000000 -37.512085
v 37.512062 10.000000 37.512085
vt 0.188570 0.813348
vt 0.372522 0.813348
vt 0.372522 0.999300
vt 0.188570 0.999300
vt 0.188570 0.813348
vt 0.372522 0.813348
vt 0.372522 0.999300
vt 0.188570 0.999300
vt 0.188570 0.813348
vt 0.372522 0.813348
vt 0.372522 0.999300
vt 0.188570 0.999300
vt 0.188570 0.813348
vt 0.372522 0.813348
vt 0.372522 0.999300
vt 0.188570 0.999300
vn 0.000000 1.000000 0.000000
vn 0.000000 1.000000 0.000000
vn 0.000000 1.000000 0.000000
vn 0.000000 1.000000 0.000000
vn 0.000000 1.000000 0.000000
vn 0.000000 1.000000 0.000000
vn 0.000000 1.000000 0.000000
vn 0.000000 1.000000 0.000000
vn 0.000000 1.000000 0.000000
f 1/1/1 2/2/2 3/3/3 4/4/4
f 5/5/5 6/6/6 2/7/2 1/8/1
f 2/9/2 7/10/7 8/11/8 3/12/3
f 6/13/6 9/14/9 7/15/7 2/16/2
