# This file uses centimeters as units for non-parametric coordinates.

v 0.000000 10.000000 -41.512081
v 0.000000 10.000000 0.000004
v 41.512085 10.000000 0.000004
v 41.512085 10.000000 -41.512089
v -41.512085 10.000000 -41.512081
v -41.512085 10.000000 0.000004
v 0.000000 10.000000 41.512089
v 41.512085 10.000000 41.512089
v -41.512085 10.000000 41.512089
v 41.512085 0.000000 0.000004
v 41.512085 0.000000 -41.512089
v 0.000000 0.000000 -41.512081
v -41.512085 0.000000 0.000004
v -41.512085 0.000000 -41.512081
v 41.512085 0.000000 41.512089
v 0.000000 0.000000 41.512089
v -41.512085 0.000000 41.512089
vt 0.188570 0.813348
vt 0.372522 0.813348
vt 0.372522 0.999300
vt 0.188570 0.999300
vt 0.188570 0.813348
vt 0.372522 0.813348
vt 0.372522 0.999300
vt 0.188570 0.999300
vt 0.188570 0.813348
vt 0.372522 0.813348
vt 0.372522 0.999300
vt 0.188570 0.999300
vt 0.188570 0.813348
vt 0.372522 0.813348
vt 0.372522 0.999300
vt 0.188570 0.999300
vt 0.188570 0.999300
vt 0.372522 0.999300
vt 0.372522 0.965939
vt 0.188570 0.965939
vt 0.188570 0.813348
vt 0.188570 0.999300
vt 0.222167 0.999300
vt 0.222167 0.813348
vt 0.372522 0.813432
vt 0.188570 0.813432
vt 0.188570 0.845893
vt 0.372522 0.845893
vt 0.188570 0.813348
vt 0.188570 0.999300
vt 0.222167 0.999300
vt 0.222167 0.813348
vt 0.372522 0.999300
vt 0.372522 0.813348
vt 0.338924 0.813348
vt 0.338924 0.999300
vt 0.188570 0.999300
vt 0.372522 0.999300
vt 0.372522 0.965939
vt 0.188570 0.965939
vt 0.372522 0.813432
vt 0.188570 0.813432
vt 0.188570 0.845893
vt 0.372522 0.845893
vt 0.372522 0.999300
vt 0.372522 0.813348
vt 0.338924 0.813348
vt 0.338924 0.999300
vn 0.000000 1.000000 0.000000
vn 0.000000 1.000000 0.000000
vn 0.000000 1.000000 0.000000
vn 0.000000 1.000000 0.000000
vn 0.000000 1.000000 0.000000
vn 0.000000 1.000000 0.000000
vn 0.000000 1.000000 0.000000
vn 0.000000 1.000000 0.000000
vn 0.000000 1.000000 0.000000
vn 1.000000 0.000000 0.000000
vn 1.000000 0.000000 0.000000
vn 1.000000 0.000000 0.000000
vn 1.000000 0.000000 0.000000
vn -0.000000 0.000000 -1.000000
vn -0.000000 0.000000 -1.000000
vn -0.000000 0.000000 -1.000000
vn -0.000000 0.000000 -1.000000
vn -1.000000 0.000000 0.000000
vn -1.000000 0.000000 0.000000
vn -1.000000 0.000000 0.000000
vn -1.000000 0.000000 0.000000
vn 0.000000 0.000000 -1.000000
vn 0.000000 0.000000 -1.000000
vn 0.000000 0.000000 -1.000000
vn 0.000000 0.000000 -1.000000
vn 0.000000 0.000000 1.000000
vn 0.000000 0.000000 1.000000
vn 0.000000 0.000000 1.000000
vn 0.000000 0.000000 1.000000
vn 1.000000 0.000000 0.000000
vn 1.000000 0.000000 0.000000
vn 1.000000 0.000000 0.000000
vn 1.000000 0.000000 0.000000
vn -1.000000 0.000000 0.000000
vn -1.000000 0.000000 0.000000
vn -1.000000 0.000000 0.000000
vn -1.000000 0.000000 0.000000
vn 0.000000 0.000000 1.000000
vn 0.000000 0.000000 1.000000
vn 0.000000 0.000000 1.000000
vn 0.000000 0.000000 1.000000
f 1/1/1 2/2/2 3/3/3 4/4/4
f 5/5/5 6/6/6 2/7/2 1/8/1
f 2/9/2 7/10/7 8/11/8 3/12/3
f 6/13/6 9/14/9 7/15/7 2/16/2
f 4/17/10 3/18/11 10/19/12 11/20/13
f 1/21/14 4/22/15 11/23/16 12/24/17
f 6/25/18 5/26/19 14/27/20 13/28/21
f 5/29/22 1/30/23 12/31/24 14/32/25
f 8/33/26 7/34/27 16/35/28 15/36/29
f 3/37/30 8/38/31 15/39/32 10/40/33
f 9/41/34 6/42/35 13/43/36 17/44/37
f 7/45/38 9/46/39 17/47/40 16/48/41
