# This file uses centimeters as units for non-parametric coordinates.

v 20.756060 9.878733 -22.756044
v -20.756060 9.878733 -22.756037
v 20.756060 9.878733 22.756041
v -20.756060 9.878733 22.756044
v 20.756060 0.000000 -22.756044
v -20.756060 0.000000 -22.756037
v 20.756060 0.000000 22.756041
v -20.756060 0.000000 22.756044
vt 0.188570 0.813348
vt 0.372522 0.813348
vt 0.372522 0.999300
vt 0.188570 0.999300
vt 0.188570 0.813348
vt 0.188570 0.999300
vt 0.222167 0.999300
vt 0.222168 0.813348
vt 0.188570 0.813348
vt 0.372522 0.813348
vt 0.372522 0.845893
vt 0.188570 0.845893
vt 0.372522 0.999300
vt 0.372522 0.813348
vt 0.338924 0.813348
vt 0.338924 0.999300
vn 0.000000 1.000000 0.000000
vn 0.000000 1.000000 0.000000
vn 0.000000 1.000000 0.000000
vn 0.000000 1.000000 0.000000
vn -0.000000 0.000000 -1.000000
vn -0.000000 0.000000 -1.000000
vn -0.000000 0.000000 -1.000000
vn -0.000000 0.000000 -1.000000
vn 1.000000 0.000000 0.000000
vn 1.000000 0.000000 0.000000
vn 1.000000 0.000000 0.000000
vn 1.000000 0.000000 0.000000
vn 0.000000 0.000000 1.000000
vn 0.000000 0.000000 1.000000
vn 0.000000 0.000000 1.000000
vn 0.000000 0.000000 1.000000
f 2/1/1 4/2/2 3/3/3 1/4/4
f 2/5/5 1/6/6 5/7/7 6/8/8
f 1/9/9 3/10/10 7/11/11 5/12/12
f 3/13/13 4/14/14 8/15/15 7/16/16
