# This file uses centimeters as units for non-parametric coordinates.

v -37.528320 53.733063 -37.512085
v 37.528442 0.000000 -37.512085
v -37.528320 66.963104 -37.512085
v 37.528442 13.230019 -37.512085
v -37.528320 53.733063 37.512070
v 37.528442 0.000000 37.512070
v 37.528442 13.230042 37.512085
v -37.528320 66.963104 37.512070
v -14.132568 34.477661 6.811691
v -4.875244 47.463684 6.811691
v -37.528320 71.503784 6.811691
v -37.528320 51.433289 6.811691
v -37.528320 51.433289 -7.647614
v -37.528320 71.503784 -7.647614
v -4.875244 47.463684 -7.647614
v -14.132568 34.477661 -7.647614
v 37.528320 -2.299782 6.811691
v 37.528320 -2.299789 -7.647614
v 37.528320 17.770714 6.811691
v 37.528320 17.770721 -7.647614
vt 0.361371 0.504828
vt 0.361371 0.685476
vt 0.198482 0.685476
vt 0.198482 0.504828
vt 0.361371 0.685476
vt 0.361371 0.504828
vt 0.198818 0.685476
vt 0.198817 0.504828
vt 0.186524 0.688157
vt 0.186524 0.746390
vt 0.000836 0.746390
vt 0.000836 0.688157
vt 0.186524 0.688157
vt 0.186524 0.746390
vt 0.000836 0.746390
vt 0.000836 0.688157
vt 0.186524 0.688157
vt 0.186524 0.746390
vt 0.000836 0.746390
vt 0.000836 0.688157
vt 0.186524 0.688157
vt 0.186524 0.746390
vt 0.000836 0.746390
vt 0.000836 0.688157
vt 0.001358 0.688157
vt 0.001358 0.746390
vt 0.186002 0.746390
vt 0.186002 0.688157
vt 0.001358 0.688157
vt 0.001358 0.746390
vt 0.186002 0.746390
vt 0.186002 0.688157
vt 0.001358 0.688157
vt 0.001358 0.746390
vt 0.186002 0.746390
vt 0.186002 0.688157
vt 0.001358 0.688157
vt 0.001358 0.746390
vt 0.186002 0.746390
vt 0.186002 0.688157
vn 0.582107 0.813113 -0.000000
vn 0.582107 0.813113 -0.000000
vn 0.582107 0.813113 -0.000000
vn 0.582107 0.813113 -0.000000
vn -0.582107 -0.813113 0.000000
vn -0.582107 -0.813113 0.000000
vn -0.582107 -0.813113 0.000000
vn -0.582107 -0.813113 0.000000
vn -0.000000 0.000000 1.000000
vn -0.000000 0.000000 1.000000
vn 0.000000 0.000000 1.000000
vn 0.000000 0.000000 1.000000
vn 0.000000 0.000000 -1.000000
vn 0.000000 0.000000 -1.000000
vn 0.000000 0.000000 -1.000000
vn 0.000000 0.000000 -1.000000
vn 0.582107 0.813112 0.000000
vn 0.582107 0.813112 0.000000
vn 0.592878 0.805292 0.000000
vn 0.592878 0.805292 0.000000
vn -0.582107 -0.813112 0.000000
vn -0.582107 -0.813112 0.000000
vn -0.586825 -0.809714 0.000000
vn -0.586825 -0.809714 0.000000
vn -0.579951 -0.814651 0.000000
vn -0.579951 -0.814651 0.000000
vn -0.000000 0.000000 1.000000
vn -0.000000 0.000000 1.000000
vn 0.573598 0.819137 0.000000
vn 0.573598 0.819137 0.000000
vn 0.000000 0.000000 -1.000000
vn 0.000000 0.000000 -1.000000
f 3/3/1 8/2/2 7/1/3 4/4/4
f 1/7/5 2/8/6 6/6/7 5/5/8
f 9/9/9 10/10/10 11/11/11 12/12/12
f 13/13/13 14/14/14 15/15/15 16/16/16
f 10/17/17 15/18/18 14/19/19 11/20/20
f 16/21/21 9/22/22 12/23/23 13/24/24
f 18/25/25 17/26/26 9/27/22 16/28/21
f 17/29/27 19/30/28 10/31/10 9/32/9
f 19/33/29 20/34/30 15/35/18 10/36/17
f 16/37/16 15/38/15 20/39/31 18/40/32
