# This file uses centimeters as units for non-parametric coordinates.

v -43.394043 53.733063 -37.512085
v 31.662720 0.000000 -37.512085
v -43.394043 66.963104 -37.512085
v 38.441772 8.915047 -37.512085
v -43.394043 53.733063 37.512070
v 31.662720 0.000000 37.512070
v 38.441772 8.915047 37.512070
v -43.394043 66.963104 37.512070
v -19.998291 34.477661 6.811691
v -10.740967 47.463684 6.811691
v -43.394043 71.503784 6.811691
v -43.394043 51.433289 6.811691
v -43.394043 51.433289 -7.647614
v -43.394043 71.503784 -7.647614
v -10.740967 47.463684 -7.647614
v -19.998291 34.477661 -7.647614
v 34.136719 -3.379295 -7.647614
v 34.136719 -3.379295 6.811691
v 7.788696 14.950607 6.811691
v 7.788696 14.950607 -7.647614
v 43.394043 9.606728 6.811691
v 17.046021 27.936638 6.811691
v 43.394043 9.606728 -7.647614
v 17.046021 27.936638 -7.647614
vt 0.280444 0.611615
vt 0.280444 0.632900
vt 0.361371 0.501482
vt 0.361371 0.685476
vt 0.372441 0.611615
vt 0.372441 0.632900
vt 0.198482 0.685476
vt 0.198482 0.501482
vt 0.361371 0.685476
vt 0.361371 0.501482
vt 0.198818 0.685476
vt 0.198817 0.501482
vt 0.186524 0.688157
vt 0.186524 0.746390
vt 0.000836 0.746390
vt 0.000836 0.688157
vt 0.186524 0.688157
vt 0.186524 0.746390
vt 0.000836 0.746390
vt 0.000836 0.688157
vt 0.186524 0.688157
vt 0.186524 0.746390
vt 0.000836 0.746390
vt 0.000836 0.688157
vt 0.186524 0.688157
vt 0.186524 0.746390
vt 0.000836 0.746390
vt 0.000836 0.688157
vt 0.186524 0.688157
vt 0.186524 0.746390
vt 0.000836 0.746390
vt 0.000836 0.688157
vt 0.186524 0.688157
vt 0.186524 0.746390
vt 0.000836 0.746390
vt 0.000836 0.688157
vt 0.186524 0.688157
vt 0.186524 0.746390
vt 0.000836 0.746390
vt 0.000836 0.688157
vt 0.186524 0.688157
vt 0.186524 0.746390
vt 0.000836 0.746390
vt 0.000836 0.688157
vt 0.001358 0.688157
vt 0.001358 0.746390
vt 0.186002 0.746390
vt 0.186002 0.688157
vt 0.001358 0.688157
vt 0.001358 0.746390
vt 0.186002 0.746390
vt 0.186002 0.688157
vt 0.001358 0.688157
vt 0.001358 0.746390
vt 0.186002 0.746390
vt 0.186002 0.688157
vt 0.001358 0.688157
vt 0.001358 0.746390
vt 0.186002 0.746390
vt 0.186002 0.688157
vt 0.026759 0.690719
vt 0.167083 0.690719
vt 0.167083 0.739232
vt 0.026759 0.739232
vn 0.796007 -0.605288 0.000000
vn 0.796007 -0.605288 0.000000
vn 0.796007 -0.605288 0.000000
vn 0.796007 -0.605288 0.000000
vn 0.578555 0.815643 0.000000
vn 0.578555 0.815643 0.000000
vn 0.578555 0.815643 0.000000
vn 0.578555 0.815643 0.000000
vn -0.582107 -0.813113 0.000000
vn -0.582107 -0.813113 0.000000
vn -0.582107 -0.813113 0.000000
vn -0.582107 -0.813113 0.000000
vn 0.000000 0.000000 1.000000
vn 0.000000 0.000000 1.000000
vn 0.000000 0.000000 1.000000
vn 0.000000 0.000000 1.000000
vn 0.000000 0.000000 -1.000000
vn 0.000000 0.000000 -1.000000
vn 0.000000 0.000000 -1.000000
vn 0.000000 0.000000 -1.000000
vn 0.584749 0.811214 0.000000
vn 0.584749 0.811214 0.000000
vn 0.592878 0.805292 0.000000
vn 0.592878 0.805292 0.000000
vn -0.580433 -0.814308 0.000000
vn -0.580433 -0.814308 0.000000
vn -0.586825 -0.809714 0.000000
vn -0.586825 -0.809714 0.000000
vn -0.571082 -0.820893 0.000000
vn -0.571082 -0.820893 0.000000
vn -0.573081 -0.819499 0.000000
vn -0.573081 -0.819499 0.000000
vn 0.000000 0.000000 1.000000
vn 0.000000 0.000000 1.000000
vn 0.000000 0.000000 1.000000
vn 0.000000 0.000000 1.000000
vn 0.571082 0.820893 0.000000
vn 0.571082 0.820893 0.000000
vn 0.573081 0.819499 0.000000
vn 0.573081 0.819499 0.000000
vn -0.000000 0.000000 -1.000000
vn -0.000000 0.000000 -1.000000
vn -0.000000 0.000000 -1.000000
vn -0.000000 0.000000 -1.000000
vn 0.814279 -0.580474 0.000000
vn 0.814279 -0.580474 0.000000
vn 0.814279 -0.580474 0.000000
vn 0.814279 -0.580474 0.000000
f 2/5/1 4/6/2 7/2/3 6/1/4
f 3/7/5 8/4/6 7/3/7 4/8/8
f 1/11/9 2/12/10 6/10/11 5/9/12
f 9/13/13 10/14/14 11/15/15 12/16/16
f 13/17/17 14/18/18 15/19/19 16/20/20
f 10/21/21 15/22/22 14/23/23 11/24/24
f 16/25/25 9/26/26 12/27/27 13/28/28
f 17/29/29 18/30/30 19/31/31 20/32/32
f 18/33/33 21/34/34 22/35/35 19/36/36
f 21/37/37 23/38/38 24/39/39 22/40/40
f 20/41/41 24/42/42 23/43/43 17/44/44
f 20/45/32 19/46/31 9/47/26 16/48/25
f 19/49/36 22/50/35 10/51/14 9/52/13
f 22/53/40 24/54/39 15/55/22 10/56/21
f 16/57/20 15/58/19 24/59/42 20/60/41
f 18/61/45 17/62/46 23/63/47 21/64/48
