# This file uses centimeters as units for non-parametric coordinates.

v -37.528397 51.251839 20.926303
v -37.528397 71.322334 20.926303
v -37.528397 51.251839 6.467013
v -37.528397 71.322334 6.467013
v 37.528366 -2.481216 6.467013
v 37.528366 -2.481216 20.926303
v 37.528366 17.589272 20.926303
v 37.528366 17.589272 6.467013
v -14.132645 34.296219 6.467013
v -14.132645 34.296219 20.926303
v -4.875321 47.282234 20.926303
v -4.875321 47.282234 6.467013
v -37.528397 51.775612 -17.086484
v -37.528397 71.846107 -17.086484
v -37.528397 51.775612 -43.450681
v -37.528397 71.846107 -43.450681
v 37.528366 -1.957443 -43.450681
v 37.528366 -1.957443 -17.086484
v 37.528366 18.113045 -17.086484
v 37.528366 18.113045 -43.450681
v -14.132645 34.819992 -43.450681
v -14.132645 34.819992 -17.086484
v -4.875321 47.806007 -17.086484
v -4.875321 47.806007 -43.450681
v 37.495773 -0.181442 -31.573453
v -37.528397 0.000008 -31.573453
v -37.528397 53.310951 -31.573453
v 37.495773 -0.181442 -29.931608
v -37.528397 0.000008 -29.931608
v -37.528397 53.310951 -29.931608
v -37.528397 53.551613 -42.539792
v 37.528366 -0.181442 -42.539792
v -37.528397 66.781654 -42.539792
v 37.528366 13.048599 -42.539792
v -37.528397 53.551613 43.450656
v 37.528366 -0.181442 43.450656
v 37.528366 13.048599 43.450656
v -37.528397 66.781654 43.450656
vt 0.186524 0.688157
vt 0.186524 0.746390
vt 0.000836 0.746390
vt 0.000836 0.688157
vt 0.186524 0.688157
vt 0.186524 0.746390
vt 0.000836 0.746390
vt 0.000836 0.688157
vt 0.186524 0.688157
vt 0.186524 0.746390
vt 0.000836 0.746390
vt 0.000836 0.688157
vt 0.186524 0.688157
vt 0.186524 0.746390
vt 0.000836 0.746390
vt 0.000836 0.688157
vt 0.001358 0.688157
vt 0.001358 0.746390
vt 0.186002 0.746390
vt 0.186002 0.688157
vt 0.001358 0.688157
vt 0.001358 0.746390
vt 0.186002 0.746390
vt 0.186002 0.688157
vt 0.001358 0.688157
vt 0.001358 0.746390
vt 0.186002 0.746390
vt 0.186002 0.688157
vt 0.001358 0.688157
vt 0.001358 0.746390
vt 0.186002 0.746390
vt 0.186002 0.688157
vt 0.186524 0.688157
vt 0.186524 0.746390
vt 0.000836 0.746390
vt 0.000836 0.688157
vt 0.186524 0.688157
vt 0.186524 0.746390
vt 0.000836 0.746390
vt 0.000836 0.688157
vt 0.186524 0.688157
vt 0.186524 0.746390
vt 0.000836 0.746390
vt 0.000836 0.688157
vt 0.186524 0.688157
vt 0.186524 0.746390
vt 0.000836 0.746390
vt 0.000836 0.688157
vt 0.001358 0.688157
vt 0.001358 0.746390
vt 0.186002 0.746390
vt 0.186002 0.688157
vt 0.001358 0.688157
vt 0.001358 0.746390
vt 0.186002 0.746390
vt 0.186002 0.688157
vt 0.001358 0.688157
vt 0.001358 0.746390
vt 0.186002 0.746390
vt 0.186002 0.688157
vt 0.001358 0.688157
vt 0.001358 0.746390
vt 0.186002 0.746390
vt 0.186002 0.688157
vt 0.182503 0.505455
vt 0.004231 0.505455
vt 0.182503 0.684815
vt 0.680132 0.815734
vt 0.501861 0.815734
vt 0.680132 0.996187
vt 0.283891 0.506036
vt 0.283891 0.685476
vt 0.262606 0.685476
vt 0.262606 0.506036
vt 0.361371 0.506036
vt 0.361371 0.685476
vt 0.189001 0.685476
vt 0.189001 0.506036
vt 0.361371 0.685476
vt 0.361371 0.506036
vt 0.189336 0.685476
vt 0.189336 0.506036
vn -0.000000 0.000000 1.000000
vn -0.000000 0.000000 1.000000
vn 0.000001 0.000000 1.000000
vn 0.000001 0.000000 1.000000
vn 0.000000 0.000000 -1.000000
vn 0.000000 0.000000 -1.000000
vn -0.000001 0.000000 -1.000000
vn -0.000001 0.000000 -1.000000
vn 0.582107 0.813112 0.000000
vn 0.582107 0.813112 0.000000
vn 0.592878 0.805292 0.000000
vn 0.592878 0.805292 0.000000
vn -0.582106 -0.813113 0.000000
vn -0.582106 -0.813113 0.000000
vn -0.586824 -0.809715 0.000000
vn -0.586824 -0.809715 0.000000
vn -0.579951 -0.814652 0.000000
vn -0.579951 -0.814652 0.000000
vn -0.000001 0.000000 1.000000
vn -0.000001 0.000000 1.000000
vn 0.573598 0.819137 0.000000
vn 0.573598 0.819137 0.000000
vn -0.000001 0.000000 -1.000000
vn -0.000001 0.000000 -1.000000
vn 0.000000 0.000000 1.000000
vn 0.000000 0.000000 1.000000
vn 0.000000 0.000000 1.000000
vn 0.000000 0.000000 1.000000
vn 0.000000 0.000000 -1.000000
vn 0.000000 0.000000 -1.000000
vn 0.000000 0.000000 -1.000000
vn 0.000000 0.000000 -1.000000
vn 0.582106 0.813113 0.000000
vn 0.582106 0.813113 0.000000
vn 0.592879 0.805292 0.000000
vn 0.592879 0.805292 0.000000
vn -0.582106 -0.813113 0.000000
vn -0.582106 -0.813113 0.000000
vn -0.586823 -0.809715 0.000000
vn -0.586823 -0.809715 0.000000
vn -0.579950 -0.814652 0.000000
vn -0.579950 -0.814652 0.000000
vn 0.000000 0.000000 1.000000
vn 0.000000 0.000000 1.000000
vn 0.573596 0.819138 0.000000
vn 0.573596 0.819138 0.000000
vn 0.000000 0.000000 -1.000000
vn 0.000000 0.000000 -1.000000
vn 0.000000 0.000000 -1.000000
vn 0.000000 0.000000 -1.000000
vn 0.000000 0.000000 -1.000000
vn 0.000000 0.000000 1.000000
vn 0.000000 0.000000 1.000000
vn 0.000000 0.000000 1.000000
vn -0.000000 0.000000 -1.000000
vn -0.000000 0.000000 -1.000000
vn -0.000000 0.000000 -1.000000
vn -0.000000 0.000000 -1.000000
vn 0.582107 0.813113 0.000000
vn 0.582107 0.813113 0.000000
vn 0.582107 0.813113 0.000000
vn 0.582107 0.813113 0.000000
vn -0.582107 -0.813113 0.000000
vn -0.582107 -0.813113 0.000000
vn -0.582107 -0.813113 0.000000
vn -0.582107 -0.813113 0.000000
f 10/1/1 11/2/2 2/3/3 1/4/4
f 3/5/5 4/6/6 12/7/7 9/8/8
f 11/9/9 12/10/10 4/11/11 2/12/12
f 9/13/13 10/14/14 1/15/15 3/16/16
f 5/17/17 6/18/18 10/19/14 9/20/13
f 6/21/19 7/22/20 11/23/2 10/24/1
f 7/25/21 8/26/22 12/27/10 11/28/9
f 9/29/8 12/30/7 8/31/23 5/32/24
f 22/33/25 23/34/26 14/35/27 13/36/28
f 15/37/29 16/38/30 24/39/31 21/40/32
f 23/41/33 24/42/34 16/43/35 14/44/36
f 21/45/37 22/46/38 13/47/39 15/48/40
f 17/49/41 18/50/42 22/51/38 21/52/37
f 18/53/43 19/54/44 23/55/26 22/56/25
f 19/57/45 20/58/46 24/59/34 23/60/33
f 21/61/32 24/62/31 20/63/47 17/64/48
f 25/66/49 26/65/50 27/67/51
f 28/69/52 30/70/53 29/68/54
f 32/71/55 31/72/56 33/73/57 34/74/58
f 33/77/59 38/76/60 37/75/61 34/78/62
f 31/81/63 32/82/64 36/80/65 35/79/66
