# This file uses centimeters as units for non-parametric coordinates.

v -37.528442 0.422104 -0.820923
v -37.528442 53.733055 -0.820923
v 37.528320 53.733055 -0.820923
v 37.528320 0.422104 -0.820923
v -37.528442 0.422104 0.820923
v -37.528442 53.733055 0.820923
v 37.528320 0.422104 0.820923
v 37.528320 53.733055 0.820923
vt 0.003291 0.683526
vt 0.003291 0.504636
vt 0.183230 0.504636
vt 0.183230 0.683526
vt 0.503649 0.996094
vt 0.503648 0.817204
vt 0.683587 0.817204
vt 0.683587 0.996094
vn 0.000000 0.000000 -1.000000
vn 0.000000 0.000000 -1.000000
vn 0.000000 0.000000 -1.000000
vn 0.000000 0.000000 -1.000000
vn 0.000000 0.000000 1.000000
vn 0.000000 0.000000 1.000000
vn 0.000000 0.000000 1.000000
vn 0.000000 0.000000 1.000000
f 3/1/1 4/2/2 1/3/3 2/4/4
f 7/5/5 8/6/6 6/7/7 5/8/8
