# This file uses centimeters as units for non-parametric coordinates.

v 9.710942 25.301414 2.967339
v 12.891056 25.301414 2.967339
v 9.710942 53.307632 2.967339
v 12.891056 53.307632 2.967339
v 9.710942 53.307632 -2.967339
v 12.891056 53.307632 -2.967339
v 9.710942 25.301414 -2.967339
v 12.891056 25.301414 -2.967339
v -11.209041 51.295952 2.157326
v 10.263554 51.295952 2.157326
v -11.209041 53.221855 2.157326
v 10.263554 53.221855 2.157326
v -11.209041 53.221855 -2.427986
v 10.263554 53.221855 -2.427986
v -11.209041 51.295952 -2.427986
v 10.263554 51.295952 -2.427986
v -11.209041 25.510612 1.900795
v 10.263554 25.510612 1.900795
v -11.209041 27.436506 1.900795
v 10.263554 27.436506 1.900795
v -11.209041 27.436506 -2.171455
v 10.263554 27.436506 -2.171455
v -11.209041 25.510612 -2.171455
v 10.263554 25.510612 -2.171455
v -13.799190 25.301414 2.967339
v -10.619075 25.301414 2.967339
v -13.799190 53.307632 2.967339
v -10.619075 53.307632 2.967339
v -13.799190 53.307632 -2.967339
v -10.619075 53.307632 -2.967339
v -13.799190 25.301414 -2.967339
v -10.619075 25.301414 -2.967339
v -37.512081 73.414101 -0.704506
v 37.512028 73.414101 -0.704506
v 37.512028 0.000000 -0.704506
v -37.512081 0.000000 -0.704506
v 12.745060 25.672852 -0.704506
v 12.745060 53.180027 -0.704506
v -10.874569 25.672852 -0.704506
v -10.874569 53.180027 -0.704506
v -37.512081 73.414101 0.937355
v 37.512028 73.414101 0.937355
v 37.512028 0.000000 0.937355
v -37.512081 0.000000 0.937355
v 12.745060 25.672852 0.937355
v 12.745060 53.180027 0.937355
v -10.874569 25.672852 0.937355
v -10.874569 53.180027 0.937355
vt 0.186461 0.813623
vt 0.186461 0.873755
vt 0.000818 0.873755
vt 0.000818 0.813623
vt 0.186461 0.813623
vt 0.186461 0.873755
vt 0.000818 0.873755
vt 0.000818 0.813623
vt 0.186461 0.813623
vt 0.186461 0.873755
vt 0.000818 0.873755
vt 0.000818 0.813623
vt 0.186461 0.813623
vt 0.186461 0.873755
vt 0.000818 0.873755
vt 0.000818 0.813623
vt 0.186461 0.813623
vt 0.186461 0.873755
vt 0.000818 0.873755
vt 0.000818 0.813623
vt 0.186461 0.813623
vt 0.186461 0.873755
vt 0.000818 0.873755
vt 0.000818 0.813623
vt 0.185940 0.872983
vt 0.001339 0.872983
vt 0.001339 0.813586
vt 0.185940 0.813586
vt 0.185940 0.872983
vt 0.001339 0.872983
vt 0.001339 0.813586
vt 0.185940 0.813586
vt 0.185940 0.872983
vt 0.001339 0.872983
vt 0.001339 0.813586
vt 0.185940 0.813586
vt 0.185940 0.872983
vt 0.001339 0.872983
vt 0.001339 0.813586
vt 0.185940 0.813586
vt 0.185940 0.872983
vt 0.001339 0.872983
vt 0.001339 0.813586
vt 0.185940 0.813586
vt 0.185940 0.872983
vt 0.001339 0.872983
vt 0.001339 0.813586
vt 0.185940 0.813586
vt 0.185940 0.872983
vt 0.001339 0.872983
vt 0.001339 0.813586
vt 0.185940 0.813586
vt 0.185940 0.872983
vt 0.001339 0.872983
vt 0.001339 0.813586
vt 0.185940 0.813586
vt 0.000818 0.813623
vt 0.000818 0.873755
vt 0.186461 0.873755
vt 0.186461 0.813623
vt 0.000818 0.813623
vt 0.000818 0.873755
vt 0.186461 0.873755
vt 0.186461 0.813623
vt 0.000818 0.813623
vt 0.000818 0.873755
vt 0.186461 0.873755
vt 0.186461 0.813623
vt 0.000818 0.813623
vt 0.000818 0.873755
vt 0.186461 0.873755
vt 0.186461 0.813623
vt 0.000818 0.813623
vt 0.000818 0.873755
vt 0.186461 0.873755
vt 0.186461 0.813623
vt 0.000818 0.813623
vt 0.000818 0.873755
vt 0.186461 0.873755
vt 0.186461 0.813623
vt 0.185062 0.684977
vt 0.003241 0.684977
vt 0.067465 0.640037
vt 0.115263 0.640037
vt 0.067465 0.567196
vt 0.003241 0.504527
vt 0.115263 0.567196
vt 0.185062 0.504527
vt 0.684064 0.995086
vt 0.502697 0.995086
vt 0.563635 0.954006
vt 0.618688 0.954006
vt 0.563635 0.881165
vt 0.502697 0.818036
vt 0.618688 0.881165
vt 0.684064 0.818036
vn 0.000000 0.000000 1.000000
vn 0.000000 0.000000 1.000000
vn 0.000000 0.000000 1.000000
vn 0.000000 0.000000 1.000000
vn 0.000000 1.000000 0.000000
vn 0.000000 1.000000 0.000000
vn 0.000000 1.000000 0.000000
vn 0.000000 1.000000 0.000000
vn 0.000000 0.000000 -1.000000
vn 0.000000 0.000000 -1.000000
vn 0.000000 0.000000 -1.000000
vn 0.000000 0.000000 -1.000000
vn 0.000000 -1.000000 0.000000
vn 0.000000 -1.000000 0.000000
vn 0.000000 -1.000000 0.000000
vn 0.000000 -1.000000 0.000000
vn 1.000000 0.000000 0.000000
vn 1.000000 0.000000 0.000000
vn 1.000000 0.000000 0.000000
vn 1.000000 0.000000 0.000000
vn -1.000000 0.000000 0.000000
vn -1.000000 0.000000 0.000000
vn -1.000000 0.000000 0.000000
vn -1.000000 0.000000 0.000000
vn 0.000000 0.000000 1.000000
vn 0.000000 0.000000 1.000000
vn 0.000000 0.000000 1.000000
vn 0.000000 0.000000 1.000000
vn 0.000000 1.000000 0.000000
vn 0.000000 1.000000 0.000000
vn 0.000000 1.000000 0.000000
vn 0.000000 1.000000 0.000000
vn 0.000000 0.000000 -1.000000
vn 0.000000 0.000000 -1.000000
vn 0.000000 0.000000 -1.000000
vn 0.000000 0.000000 -1.000000
vn 0.000000 -1.000000 0.000000
vn 0.000000 -1.000000 0.000000
vn 0.000000 -1.000000 0.000000
vn 0.000000 -1.000000 0.000000
vn 0.000000 0.000000 1.000000
vn 0.000000 0.000000 1.000000
vn 0.000000 0.000000 1.000000
vn 0.000000 0.000000 1.000000
vn 0.000000 1.000000 0.000000
vn 0.000000 1.000000 0.000000
vn 0.000000 1.000000 0.000000
vn 0.000000 1.000000 0.000000
vn 0.000000 0.000000 -1.000000
vn 0.000000 0.000000 -1.000000
vn 0.000000 0.000000 -1.000000
vn 0.000000 0.000000 -1.000000
vn 0.000000 -1.000000 0.000000
vn 0.000000 -1.000000 0.000000
vn 0.000000 -1.000000 0.000000
vn 0.000000 -1.000000 0.000000
vn 0.000000 0.000000 1.000000
vn 0.000000 0.000000 1.000000
vn 0.000000 0.000000 1.000000
vn 0.000000 0.000000 1.000000
vn 0.000000 1.000000 0.000000
vn 0.000000 1.000000 0.000000
vn 0.000000 1.000000 0.000000
vn 0.000000 1.000000 0.000000
vn 0.000000 0.000000 -1.000000
vn 0.000000 0.000000 -1.000000
vn 0.000000 0.000000 -1.000000
vn 0.000000 0.000000 -1.000000
vn 0.000000 -1.000000 0.000000
vn 0.000000 -1.000000 0.000000
vn 0.000000 -1.000000 0.000000
vn 0.000000 -1.000000 0.000000
vn 1.000000 0.000000 0.000000
vn 1.000000 0.000000 0.000000
vn 1.000000 0.000000 0.000000
vn 1.000000 0.000000 0.000000
vn -1.000000 0.000000 0.000000
vn -1.000000 0.000000 0.000000
vn -1.000000 0.000000 0.000000
vn -1.000000 0.000000 0.000000
vn 0.000000 0.000000 -1.000000
vn 0.000000 0.000000 -1.000000
vn 0.000000 0.000000 -1.000000
vn 0.000000 0.000000 -1.000000
vn -0.000000 0.000000 -1.000000
vn -0.000000 0.000000 -1.000000
vn -0.000000 0.000000 -1.000000
vn -0.000000 0.000000 -1.000000
vn -0.000000 0.000000 -1.000000
vn -0.000000 0.000000 -1.000000
vn -0.000000 0.000000 -1.000000
vn -0.000000 0.000000 -1.000000
vn 0.000000 0.000000 -1.000000
vn 0.000000 0.000000 -1.000000
vn 0.000000 0.000000 -1.000000
vn 0.000000 0.000000 -1.000000
vn 0.000000 0.000000 1.000000
vn 0.000000 0.000000 1.000000
vn 0.000000 0.000000 1.000000
vn 0.000000 0.000000 1.000000
vn 0.000000 0.000000 1.000000
vn 0.000000 0.000000 1.000000
vn 0.000000 0.000000 1.000000
vn 0.000000 0.000000 1.000000
vn 0.000000 0.000000 1.000000
vn 0.000000 0.000000 1.000000
vn 0.000000 0.000000 1.000000
vn 0.000000 0.000000 1.000000
vn 0.000000 0.000000 1.000000
vn 0.000000 0.000000 1.000000
vn 0.000000 0.000000 1.000000
vn 0.000000 0.000000 1.000000
f 1/1/1 2/2/2 4/3/3 3/4/4
f 3/5/5 4/6/6 6/7/7 5/8/8
f 5/9/9 6/10/10 8/11/11 7/12/12
f 7/13/13 8/14/14 2/15/15 1/16/16
f 2/17/17 8/18/18 6/19/19 4/20/20
f 7/21/21 1/22/22 3/23/23 5/24/24
f 9/25/25 10/26/26 12/27/27 11/28/28
f 11/29/29 12/30/30 14/31/31 13/32/32
f 13/33/33 14/34/34 16/35/35 15/36/36
f 15/37/37 16/38/38 10/39/39 9/40/40
f 17/41/41 18/42/42 20/43/43 19/44/44
f 19/45/45 20/46/46 22/47/47 21/48/48
f 21/49/49 22/50/50 24/51/51 23/52/52
f 23/53/53 24/54/54 18/55/55 17/56/56
f 25/57/57 26/58/58 28/59/59 27/60/60
f 27/61/61 28/62/62 30/63/63 29/64/64
f 29/65/65 30/66/66 32/67/67 31/68/68
f 31/69/69 32/70/70 26/71/71 25/72/72
f 26/73/73 32/74/74 30/75/75 28/76/76
f 31/77/77 25/78/78 27/79/79 29/80/80
f 33/81/81 34/82/82 38/83/83 40/84/84
f 37/85/85 38/83/86 34/82/87 35/86/88
f 39/87/89 36/88/90 33/81/91 40/84/92
f 37/85/93 35/86/94 36/88/95 39/87/96
f 41/89/97 48/92/98 46/91/99 42/90/100
f 45/93/101 43/94/102 42/90/103 46/91/104
f 47/95/105 48/92/106 41/89/107 44/96/108
f 45/93/109 47/95/110 44/96/111 43/94/112
