# This file uses centimeters as units for non-parametric coordinates.

v 37.512070 0.000000 -1.262703
v 37.512070 73.414101 -1.262703
v -37.512085 73.414101 -1.262703
v -37.512085 0.000000 -1.262703
v 14.910652 50.330215 -1.262703
v -14.714867 50.330215 -1.262703
v 14.910652 26.494827 -1.262703
v -14.714867 26.494827 -1.262703
v -37.512085 73.414101 0.379158
v -37.512085 0.000000 0.379158
v 37.512070 73.414101 0.379158
v 37.512070 0.000000 0.379158
v 14.910652 50.330215 0.379158
v -14.714867 50.330215 0.379158
v 14.910652 26.494827 0.379158
v -14.714867 26.494827 0.379158
v 17.157776 25.165947 -5.044525
v -16.019413 25.165947 -5.044525
v 17.157776 27.810692 -5.044525
v -16.019413 27.810692 -5.044525
v 17.157776 27.810692 5.044525
v -16.019413 27.810692 5.044525
v 17.157776 25.165947 5.044525
v -16.019413 25.165947 5.044525
v -12.675938 25.214088 -4.642487
v -16.042957 25.214088 -4.642487
v -12.675938 51.767296 -4.642487
v -16.042957 51.767296 -4.642487
v -12.675938 51.767296 3.809387
v -16.042957 51.767296 3.809387
v -12.675938 25.214088 3.809387
v -16.042957 25.214088 3.809387
v 17.123657 25.214088 -4.642487
v 13.756638 25.214088 -4.642487
v 17.123657 51.767296 -4.642487
v 13.756638 51.767296 -4.642487
v 17.123657 51.767296 3.809387
v 13.756638 51.767296 3.809387
v 17.123657 25.214088 3.809387
v 13.756638 25.214088 3.809387
v 17.157776 49.263908 -5.044525
v -16.019413 49.263908 -5.044525
v 17.157776 51.908653 -5.044525
v -16.019413 51.908653 -5.044525
v 17.157776 51.908653 5.044525
v -16.019413 51.908653 5.044525
v 17.157776 49.263908 5.044525
v -16.019413 49.263908 5.044525
vt 0.058016 0.628016
vt 0.129813 0.628016
vt 0.185062 0.684977
vt 0.003241 0.684977
vt 0.129813 0.568984
vt 0.185062 0.504527
vt 0.058016 0.568984
vt 0.003241 0.504527
vt 0.557331 0.939885
vt 0.629128 0.939885
vt 0.683903 0.997056
vt 0.502082 0.997056
vt 0.629128 0.880853
vt 0.683903 0.815235
vt 0.557331 0.880853
vt 0.502082 0.815235
vt 0.185940 0.872983
vt 0.001339 0.872983
vt 0.001339 0.813586
vt 0.185940 0.813586
vt 0.185940 0.872983
vt 0.001339 0.872983
vt 0.001339 0.813586
vt 0.185940 0.813586
vt 0.185940 0.872983
vt 0.001339 0.872983
vt 0.001339 0.813586
vt 0.185940 0.813586
vt 0.185940 0.872983
vt 0.001339 0.872983
vt 0.001339 0.813586
vt 0.185940 0.813586
vt 0.185940 0.872983
vt 0.001339 0.872983
vt 0.001339 0.813586
vt 0.185940 0.813586
vt 0.185939 0.872983
vt 0.001339 0.872983
vt 0.001339 0.813586
vt 0.185940 0.813586
vt 0.000818 0.813623
vt 0.000818 0.873755
vt 0.186461 0.873755
vt 0.186461 0.813623
vt 0.000818 0.813623
vt 0.000818 0.873755
vt 0.186461 0.873755
vt 0.186461 0.813623
vt 0.000818 0.813623
vt 0.000818 0.873755
vt 0.186461 0.873755
vt 0.186461 0.813623
vt 0.000818 0.813623
vt 0.000818 0.873755
vt 0.186461 0.873755
vt 0.186461 0.813623
vt 0.000818 0.813623
vt 0.000818 0.873755
vt 0.186461 0.873755
vt 0.186461 0.813623
vt 0.000818 0.813623
vt 0.000818 0.873755
vt 0.186461 0.873755
vt 0.186461 0.813623
vt 0.000818 0.813623
vt 0.000818 0.873755
vt 0.186461 0.873755
vt 0.186461 0.813623
vt 0.000818 0.813623
vt 0.000818 0.873755
vt 0.186461 0.873755
vt 0.186461 0.813623
vt 0.000818 0.813623
vt 0.000818 0.873755
vt 0.186461 0.873755
vt 0.186461 0.813623
vt 0.000818 0.813623
vt 0.000818 0.873755
vt 0.186461 0.873755
vt 0.186461 0.813623
vt 0.000818 0.813623
vt 0.000818 0.873755
vt 0.186461 0.873755
vt 0.186461 0.813623
vt 0.000818 0.813623
vt 0.000818 0.873755
vt 0.186461 0.873755
vt 0.186461 0.813623
vt 0.185940 0.872983
vt 0.001339 0.872983
vt 0.001339 0.813586
vt 0.185940 0.813586
vt 0.185940 0.872983
vt 0.001339 0.872983
vt 0.001339 0.813586
vt 0.185940 0.813586
vt 0.185940 0.872983
vt 0.001339 0.872983
vt 0.001339 0.813586
vt 0.185940 0.813586
vt 0.185940 0.872983
vt 0.001339 0.872983
vt 0.001339 0.813586
vt 0.185940 0.813586
vt 0.185940 0.872983
vt 0.001339 0.872983
vt 0.001339 0.813586
vt 0.185940 0.813586
vt 0.185939 0.872983
vt 0.001339 0.872983
vt 0.001339 0.813586
vt 0.185940 0.813586
vn 0.000000 0.000000 -1.000000
vn 0.000000 0.000000 -1.000000
vn 0.000000 0.000000 -1.000000
vn 0.000000 0.000000 -1.000000
vn 0.000000 0.000000 -1.000000
vn 0.000000 0.000000 -1.000000
vn 0.000000 0.000000 -1.000000
vn 0.000000 0.000000 -1.000000
vn 0.000000 0.000000 -1.000000
vn 0.000000 0.000000 -1.000000
vn 0.000000 0.000000 -1.000000
vn 0.000000 0.000000 -1.000000
vn 0.000000 0.000000 -1.000000
vn 0.000000 0.000000 -1.000000
vn 0.000000 0.000000 -1.000000
vn 0.000000 0.000000 -1.000000
vn 0.000000 0.000000 1.000000
vn 0.000000 0.000000 1.000000
vn 0.000000 0.000000 1.000000
vn 0.000000 0.000000 1.000000
vn 0.000000 0.000000 1.000000
vn 0.000000 0.000000 1.000000
vn 0.000000 0.000000 1.000000
vn 0.000000 0.000000 1.000000
vn 0.000000 0.000000 1.000000
vn 0.000000 0.000000 1.000000
vn 0.000000 0.000000 1.000000
vn 0.000000 0.000000 1.000000
vn -0.000000 0.000000 1.000000
vn -0.000000 0.000000 1.000000
vn -0.000000 0.000000 1.000000
vn -0.000000 0.000000 1.000000
vn 0.000000 0.000000 -1.000000
vn 0.000000 0.000000 -1.000000
vn 0.000000 0.000000 -1.000000
vn 0.000000 0.000000 -1.000000
vn 0.000000 1.000000 0.000000
vn 0.000000 1.000000 0.000000
vn 0.000000 1.000000 0.000000
vn 0.000000 1.000000 0.000000
vn 0.000000 0.000000 1.000000
vn 0.000000 0.000000 1.000000
vn 0.000000 0.000000 1.000000
vn 0.000000 0.000000 1.000000
vn 0.000000 -1.000000 0.000000
vn 0.000000 -1.000000 0.000000
vn 0.000000 -1.000000 0.000000
vn 0.000000 -1.000000 0.000000
vn -1.000000 0.000000 0.000000
vn -1.000000 0.000000 0.000000
vn -1.000000 0.000000 0.000000
vn -1.000000 0.000000 0.000000
vn 1.000000 0.000000 0.000000
vn 1.000000 0.000000 0.000000
vn 1.000000 0.000000 0.000000
vn 1.000000 0.000000 0.000000
vn 0.000000 0.000000 -1.000000
vn 0.000000 0.000000 -1.000000
vn 0.000000 0.000000 -1.000000
vn 0.000000 0.000000 -1.000000
vn 0.000000 1.000000 0.000000
vn 0.000000 1.000000 0.000000
vn 0.000000 1.000000 0.000000
vn 0.000000 1.000000 0.000000
vn 0.000000 0.000000 1.000000
vn 0.000000 0.000000 1.000000
vn 0.000000 0.000000 1.000000
vn 0.000000 0.000000 1.000000
vn 0.000000 -1.000000 0.000000
vn 0.000000 -1.000000 0.000000
vn 0.000000 -1.000000 0.000000
vn 0.000000 -1.000000 0.000000
vn -1.000000 0.000000 0.000000
vn -1.000000 0.000000 0.000000
vn -1.000000 0.000000 0.000000
vn -1.000000 0.000000 0.000000
vn 1.000000 0.000000 0.000000
vn 1.000000 0.000000 0.000000
vn 1.000000 0.000000 0.000000
vn 1.000000 0.000000 0.000000
vn 0.000000 0.000000 -1.000000
vn 0.000000 0.000000 -1.000000
vn 0.000000 0.000000 -1.000000
vn 0.000000 0.000000 -1.000000
vn 0.000000 1.000000 0.000000
vn 0.000000 1.000000 0.000000
vn 0.000000 1.000000 0.000000
vn 0.000000 1.000000 0.000000
vn 0.000000 0.000000 1.000000
vn 0.000000 0.000000 1.000000
vn 0.000000 0.000000 1.000000
vn 0.000000 0.000000 1.000000
vn 0.000000 -1.000000 0.000000
vn 0.000000 -1.000000 0.000000
vn 0.000000 -1.000000 0.000000
vn 0.000000 -1.000000 0.000000
vn -1.000000 0.000000 0.000000
vn -1.000000 0.000000 0.000000
vn -1.000000 0.000000 0.000000
vn -1.000000 0.000000 0.000000
vn 1.000000 0.000000 0.000000
vn 1.000000 0.000000 0.000000
vn 1.000000 0.000000 0.000000
vn 1.000000 0.000000 0.000000
vn 0.000000 0.000000 -1.000000
vn 0.000000 0.000000 -1.000000
vn 0.000000 0.000000 -1.000000
vn 0.000000 0.000000 -1.000000
vn 0.000000 1.000000 0.000000
vn 0.000000 1.000000 0.000000
vn 0.000000 1.000000 0.000000
vn 0.000000 1.000000 0.000000
vn 0.000000 0.000000 1.000000
vn 0.000000 0.000000 1.000000
vn 0.000000 0.000000 1.000000
vn 0.000000 0.000000 1.000000
vn 0.000000 -1.000000 0.000000
vn 0.000000 -1.000000 0.000000
vn 0.000000 -1.000000 0.000000
vn 0.000000 -1.000000 0.000000
vn -1.000000 0.000000 0.000000
vn -1.000000 0.000000 0.000000
vn -1.000000 0.000000 0.000000
vn -1.000000 0.000000 0.000000
vn 1.000000 0.000000 0.000000
vn 1.000000 0.000000 0.000000
vn 1.000000 0.000000 0.000000
vn 1.000000 0.000000 0.000000
f 5/1/1 6/2/2 3/3/3 2/4/4
f 8/5/5 4/6/6 3/3/7 6/2/8
f 7/7/9 1/8/10 4/6/11 8/5/12
f 2/4/13 1/8/14 7/7/15 5/1/16
f 14/9/17 13/10/18 11/11/19 9/12/20
f 15/13/21 12/14/22 11/11/23 13/10/24
f 15/13/25 16/15/26 10/16/27 12/14/28
f 9/12/29 10/16/30 16/15/31 14/9/32
f 17/17/33 18/18/34 20/19/35 19/20/36
f 19/21/37 20/22/38 22/23/39 21/24/40
f 21/25/41 22/26/42 24/27/43 23/28/44
f 23/29/45 24/30/46 18/31/47 17/32/48
f 18/33/49 24/34/50 22/35/51 20/36/52
f 23/37/53 17/38/54 19/39/55 21/40/56
f 25/41/57 26/42/58 28/43/59 27/44/60
f 27/45/61 28/46/62 30/47/63 29/48/64
f 29/49/65 30/50/66 32/51/67 31/52/68
f 31/53/69 32/54/70 26/55/71 25/56/72
f 26/57/73 32/58/74 30/59/75 28/60/76
f 31/61/77 25/62/78 27/63/79 29/64/80
f 33/65/81 34/66/82 36/67/83 35/68/84
f 35/69/85 36/70/86 38/71/87 37/72/88
f 37/73/89 38/74/90 40/75/91 39/76/92
f 39/77/93 40/78/94 34/79/95 33/80/96
f 34/81/97 40/82/98 38/83/99 36/84/100
f 39/85/101 33/86/102 35/87/103 37/88/104
f 41/89/105 42/90/106 44/91/107 43/92/108
f 43/93/109 44/94/110 46/95/111 45/96/112
f 45/97/113 46/98/114 48/99/115 47/100/116
f 47/101/117 48/102/118 42/103/119 41/104/120
f 42/105/121 48/106/122 46/107/123 44/108/124
f 47/109/125 41/110/126 43/111/127 45/112/128
