# This file uses centimeters as units for non-parametric coordinates.

v -37.512085 73.414101 -0.820930
v 37.512024 73.414101 -0.820930
v 37.512024 0.000000 -0.820930
v -37.512085 0.000000 -0.820930
v -37.512085 73.414101 0.820930
v 37.512024 73.414101 0.820930
v 37.512024 0.000000 0.820930
v -37.512085 0.000000 0.820930
vt 0.185062 0.684977
vt 0.003241 0.684977
vt 0.003241 0.504527
vt 0.185062 0.504527
vt 0.684064 0.995789
vt 0.502697 0.995789
vt 0.502697 0.818036
vt 0.684064 0.818036
vn 0.000000 0.000000 -1.000000
vn 0.000000 0.000000 -1.000000
vn 0.000000 0.000000 -1.000000
vn 0.000000 0.000000 -1.000000
vn 0.000000 0.000000 1.000000
vn 0.000000 0.000000 1.000000
vn 0.000000 0.000000 1.000000
vn 0.000000 0.000000 1.000000
f 1/1/1 2/2/2 3/3/3 4/4/4
f 5/5/5 8/8/6 7/7/7 6/6/8
