# 3ds Max Wavefront OBJ Exporter v0.97b - (c)2007 guruware
# File Created: 19.11.2013 21:52:33

mtllib rocks_03.mtl

#
# object Rocks_03
#

v  12.7907 22.0718 -25.7722
v  -4.1334 16.9024 -25.3880
v  3.5485 13.8946 -11.9851
v  0.7675 -11.6766 12.3143
v  17.6990 -11.6766 7.7625
v  13.2387 9.6107 6.1635
v  -2.3676 3.1322 10.8584
v  29.2765 -11.6766 -9.9706
v  21.9344 19.2367 -11.7084
v  17.6270 -11.6766 -29.6208
v  -6.6686 -11.6766 -27.6452
v  -13.5875 -11.6766 -12.5769
v  -8.9603 9.8654 -12.1048
v  -9.0599 4.6955 0.9301
v  -13.1687 -11.6766 1.9082
v  38.6733 32.4684 -4.0311
v  25.8581 28.0419 -12.4342
v  22.9602 23.6453 5.5680
v  4.9974 -31.5402 27.6244
v  17.6252 -31.5402 35.2642
v  18.3901 21.4097 29.6946
v  8.8313 19.9798 21.9398
v  41.0744 -31.5402 18.6581
v  36.5675 23.8000 15.2886
v  46.3142 -31.5402 -12.2936
v  24.2055 -31.5402 -22.2387
v  6.7536 -31.5402 -6.6316
v  12.8262 23.8297 -1.0508
v  4.4047 17.0222 12.4992
v  -5.9734 -31.5402 13.4501
v  -2.0438 9.1547 34.1542
v  10.8845 10.5614 52.0571
v  30.4750 10.7191 27.2841
v  18.4838 10.1283 13.2335
v  20.6758 -16.0619 5.7063
v  -6.5212 -16.0619 31.7995
v  7.7173 -16.0619 55.3883
v  33.9712 -16.0619 71.4180
v  50.8877 -16.0619 55.1930
v  43.5887 7.7516 54.3551
v  33.0126 7.5005 64.8685
v  39.9769 -16.0619 20.8942
v  -36.8133 9.8372 45.8901
v  -34.8357 10.4046 56.0921
v  -21.5694 10.4682 49.3911
v  -23.9092 10.2299 41.0192
v  -21.4839 -1.6873 38.2391
v  -38.2591 -1.6873 43.9987
v  -36.8471 -1.6873 56.8877
v  -28.8092 -1.6873 68.9267
v  -18.3760 -1.6873 65.3462
v  -21.3267 9.2712 63.5443
v  -27.9226 9.1700 65.9406
v  -16.2481 -1.6873 48.5429
v  44.7116 9.8095 10.0688
v  27.7875 4.6401 10.4531
v  35.4694 1.6323 23.8559
v  32.6884 -23.9389 48.1553
v  49.6199 -23.9389 43.6035
v  45.1596 -2.6516 42.0046
v  29.5533 -9.1301 46.6994
v  61.1974 -23.9389 25.8704
v  53.8553 6.9744 24.1326
v  49.5479 -23.9389 6.2202
v  25.2523 -23.9389 8.1958
v  18.3334 -23.9389 23.2642
v  22.9606 -2.3969 23.7362
v  22.8610 -7.5668 36.7711
v  18.7522 -23.9389 37.7492
v  53.2959 -5.3270 16.4507
v  59.8695 -2.4456 1.4390
v  36.4158 -4.3227 -2.0104
v  31.9362 -6.4122 10.9926
v  27.5467 -20.3308 10.9828
v  54.7407 -18.4842 18.8825
v  64.5480 -15.6036 0.8296
v  64.9028 -13.1289 -22.1961
v  47.9913 -14.2770 -27.1115
v  49.0297 -2.4444 -20.7750
v  59.8524 -1.8006 -17.8519
v  30.0045 -18.1600 -7.2165
# 81 vertices

vn -0.0557 0.9957 0.0741
vn -0.0582 0.9954 0.0755
vn -0.0578 0.9956 0.0743
vn 0.0035 0.4545 0.8907
vn 0.4549 0.7160 0.5296
vn 0.3667 0.6747 0.6405
vn -0.4355 0.1174 0.8925
vn 0.5380 0.7700 0.3431
vn 0.5347 0.7741 0.3389
vn -0.0551 0.4694 -0.8813
vn -0.0738 0.4144 -0.9071
vn -0.0695 0.4273 -0.9014
vn -0.0480 0.4897 -0.8706
vn -0.6733 0.7349 -0.0816
vn -0.6552 0.7530 -0.0611
vn -0.7568 0.5711 -0.3181
vn -0.7786 0.5157 -0.3575
vn -0.5672 0.7992 0.1987
vn -0.6044 0.7655 0.2205
vn 0.6253 0.6833 -0.3770
vn 0.6201 0.6931 -0.3676
vn 0.6218 0.6899 -0.3707
vn 0.6285 0.6771 -0.3829
vn -0.0590 0.9955 0.0737
vn -0.0617 0.9953 0.0748
vn -0.0659 0.9951 0.0740
vn -0.0734 0.9959 0.0526
vn -0.0628 0.9974 0.0359
vn -0.0358 0.9986 0.0399
vn -0.5770 0.5426 0.6104
vn 0.0109 0.4863 0.8737
vn 0.0498 0.5289 0.8472
vn -0.6000 0.6132 0.5138
vn 0.7541 0.4658 0.4630
vn 0.7734 0.4708 0.4244
vn 0.6582 0.6445 -0.3890
vn -0.1162 0.6625 -0.7400
vn -0.0802 0.6867 -0.7225
vn 0.7481 0.6232 -0.2281
vn -0.6062 0.6266 -0.4898
vn -0.6223 0.6182 -0.4802
vn -0.6765 0.7304 -0.0945
vn -0.6973 0.7167 0.0111
vn -0.0487 0.9987 0.0125
vn -0.0265 0.9996 -0.0021
vn -0.0383 0.9983 0.0439
vn -0.0363 0.9988 0.0320
vn -0.1398 0.9902 0.0070
vn -0.0101 0.9999 -0.0048
vn 0.0029 1.0000 0.0046
vn -0.0000 1.0000 0.0034
vn -0.0091 1.0000 -0.0002
vn 0.0312 0.8684 -0.4948
vn -0.6739 0.7282 -0.1248
vn -0.7512 0.6549 0.0829
vn -0.1194 0.8137 -0.5689
vn -0.5079 0.6831 0.5248
vn -0.5173 0.6631 0.5411
vn 0.0663 0.8318 0.5511
vn 0.5111 0.8518 0.1152
vn 0.4928 0.8564 0.1540
vn 0.0530 0.8253 0.5623
vn 0.3352 0.9089 -0.2482
vn 0.3402 0.9052 -0.2548
vn 0.0148 0.9997 0.0194
vn 0.0151 0.9998 0.0160
vn -0.0061 1.0000 -0.0074
vn 0.0006 1.0000 0.0046
vn -0.0012 1.0000 0.0026
vn -0.0070 1.0000 -0.0034
vn 0.2309 0.8754 -0.4247
vn -0.5500 0.7382 -0.3906
vn -0.7096 0.6646 -0.2340
vn 0.1254 0.8220 -0.5554
vn -0.6708 0.6954 0.2578
vn -0.6861 0.6762 0.2683
vn -0.1690 0.8372 0.5202
vn 0.4086 0.8569 0.3142
vn 0.3755 0.8615 0.3417
vn -0.1852 0.8311 0.5244
vn 0.3968 0.9142 -0.0824
vn 0.4034 0.9109 -0.0865
vn 0.0045 0.9998 0.0205
vn 0.0059 0.9998 0.0179
vn -0.0181 0.9995 0.0268
vn -0.0171 0.9997 0.0172
vn -0.0168 0.9997 0.0189
vn -0.0159 0.9996 0.0248
vn -0.4543 0.8676 0.2023
vn 0.2592 0.7650 0.5896
vn 0.2371 0.7419 0.6272
vn -0.4273 0.7121 0.5571
vn 0.4707 0.8748 0.1148
vn 0.4893 0.8551 0.1713
vn 0.2436 0.9525 -0.1825
vn -0.1040 0.9433 -0.3153
vn -0.1353 0.9443 -0.2998
vn 0.2632 0.9499 -0.1683
vn -0.3083 0.9444 -0.1141
vn -0.3305 0.9389 -0.0959
vn -0.0129 0.9999 0.0063
vn -0.0148 0.9999 0.0072
# 102 vertex normals

vt 0.4046 0.4605 0.0000
vt 0.4281 0.2607 0.0000
vt 0.5716 0.3725 0.0000
vt 0.9758 0.3394 0.0000
vt 0.8457 0.6122 0.0000
vt 0.7667 0.5324 0.0000
vt 0.8575 0.3363 0.0000
vt 0.5150 0.7349 0.0000
vt 0.5358 0.6058 0.0000
vt 0.2381 0.5012 0.0000
vt 0.3307 0.1250 0.0000
vt 0.5839 0.0339 0.0000
vt 0.5895 0.1987 0.0000
vt 0.7529 0.2094 0.0000
vt 0.8513 0.0687 0.0000
vt 0.3375 0.8493 0.0000
vt 0.2583 0.8924 0.0000
vt 0.2510 0.7853 0.0000
vt 0.1362 0.5983 0.0000
vt 0.2611 0.5597 0.0000
vt 0.2507 0.6316 0.0000
vt 0.1733 0.6684 0.0000
vt 0.4386 0.6976 0.0000
vt 0.3568 0.7356 0.0000
vt 0.4172 0.9240 0.0000
vt 0.2362 0.9927 0.0000
vt 0.0865 0.8895 0.0000
vt 0.1737 0.8271 0.0000
vt 0.1219 0.7284 0.0000
vt 0.0213 0.7069 0.0000
vt 0.6468 0.8218 0.0000
vt 0.7333 0.7728 0.0000
vt 0.7810 0.8821 0.0000
vt 0.7068 0.9119 0.0000
vt 0.6892 0.9710 0.0000
vt 0.5905 0.8226 0.0000
vt 0.7042 0.7154 0.0000
vt 0.8936 0.6996 0.0000
vt 0.9627 0.8078 0.0000
vt 0.8961 0.8013 0.0000
vt 0.8634 0.7462 0.0000
vt 0.8287 0.9500 0.0000
# 42 texture coords

g Rocks_03
usemtl 02___sdsd
s 8
f 1/1/1 2/2/2 3/3/3 
s 1
f 4/4/4 5/5/5 6/6/6 7/7/7 
f 8/8/8 9/9/9 6/6/6 5/5/5 
s 2
f 10/10/10 11/11/11 2/2/12 1/1/13 
s 1
f 12/12/14 13/13/15 2/2/16 11/11/17 
f 7/7/7 14/14/18 15/15/19 4/4/4 
s 4
f 8/8/20 10/10/21 1/1/22 9/9/23 
s 1
f 12/12/14 15/15/19 14/14/18 13/13/15 
s 8
f 7/7/24 6/6/1 9/9/1 3/3/3 
f 2/2/2 13/13/25 3/3/3 
f 13/13/25 14/14/26 7/7/24 3/3/3 
f 3/3/3 9/9/1 1/1/1 
s 2
f 16/16/27 17/17/28 18/18/29 
s 1
f 19/19/30 20/20/31 21/21/32 22/22/33 
f 23/23/34 24/24/35 21/21/32 20/20/31 
f 25/25/36 26/26/37 17/17/38 16/16/39 
f 27/27/40 28/28/41 17/17/38 26/26/37 
f 22/22/33 29/29/42 30/30/43 19/19/30 
f 23/23/34 25/25/36 16/16/39 24/24/35 
f 27/27/40 30/30/43 29/29/42 28/28/41 
s 2
f 22/22/44 21/21/45 24/24/46 18/18/29 
f 17/17/28 28/28/47 18/18/29 
f 28/28/47 29/29/48 22/22/44 18/18/29 
f 18/18/29 24/24/46 16/16/27 
f 31/31/49 32/32/50 33/33/51 34/34/52 
s 1
f 35/35/53 36/36/54 31/31/55 34/34/56 
f 36/36/54 37/37/57 32/32/58 31/31/55 
f 38/38/59 39/39/60 40/40/61 41/41/62 
f 42/42/63 33/33/64 40/40/61 39/39/60 
s 2
f 32/32/50 41/41/65 40/40/66 33/33/51 
s 1
f 37/37/57 38/38/59 41/41/62 32/32/58 
f 35/35/53 34/34/56 33/33/64 42/42/63 
s 2
f 43/31/67 44/32/68 45/33/69 46/34/70 
s 1
f 47/35/71 48/36/72 43/31/73 46/34/74 
f 48/36/72 49/37/75 44/32/76 43/31/73 
f 50/38/77 51/39/78 52/40/79 53/41/80 
f 54/42/81 45/33/82 52/40/79 51/39/78 
s 2
f 44/32/68 53/41/83 52/40/84 45/33/69 
s 1
f 49/37/75 50/38/77 53/41/80 44/32/76 
f 47/35/71 46/34/74 45/33/82 54/42/81 
s 8
f 55/1/1 56/2/2 57/3/3 
s 1
f 58/4/4 59/5/5 60/6/6 61/7/7 
f 62/8/8 63/9/9 60/6/6 59/5/5 
s 2
f 64/10/10 65/11/11 56/2/12 55/1/13 
s 1
f 66/12/14 67/13/15 56/2/16 65/11/17 
f 61/7/7 68/14/18 69/15/19 58/4/4 
s 4
f 62/8/20 64/10/21 55/1/22 63/9/23 
s 1
f 66/12/14 69/15/19 68/14/18 67/13/15 
s 8
f 61/7/24 60/6/1 63/9/1 57/3/3 
f 56/2/2 67/13/25 57/3/3 
f 67/13/25 68/14/26 61/7/24 57/3/3 
f 57/3/3 63/9/1 55/1/1 
s 2
f 70/31/85 71/32/86 72/33/87 73/34/88 
s 1
f 74/35/89 75/36/90 70/31/91 73/34/92 
f 75/36/90 76/37/93 71/32/94 70/31/91 
f 77/38/95 78/39/96 79/40/97 80/41/98 
f 81/42/99 72/33/100 79/40/97 78/39/96 
s 2
f 71/32/86 80/41/101 79/40/102 72/33/87 
s 1
f 76/37/93 77/38/95 80/41/98 71/32/94 
f 74/35/89 73/34/92 72/33/100 81/42/99 
# 51 polygons - 9 triangles

