# 3ds Max Wavefront OBJ Exporter v0.97b - (c)2007 guruware
# File Created: 19.11.2013 21:31:19

mtllib Rocks_01.mtl

#
# object Rocks_01
#

v  11.2250 41.7533 -19.9293
v  -11.8010 36.8692 -19.4065
v  -1.3494 34.0273 -1.1713
v  -6.2502 -5.2310 32.3179
v  16.7859 -2.1920 26.1250
v  11.8345 29.9798 23.5207
v  -9.3985 23.8588 29.9083
v  32.5376 -2.1920 1.9983
v  23.6654 39.0747 -0.7949
v  16.6879 -2.1920 -24.7367
v  -16.3673 -2.1920 -22.0488
v  -25.7808 -2.1920 -1.5476
v  -19.4853 30.2204 -0.9054
v  -19.6208 25.3358 16.8292
v  -25.2110 -2.1920 18.1599
v  35.7484 12.8646 12.4658
v  21.8790 10.8685 3.3715
v  18.7428 8.8860 22.8544
v  -0.6975 -1.7154 46.7250
v  12.9689 -1.7154 54.9932
v  13.7968 7.8778 48.9655
v  3.4518 7.2330 40.5728
v  38.3469 -1.7154 37.0212
v  33.4693 8.9557 33.3745
v  44.0177 -1.7154 3.5237
v  20.0906 -1.7154 -7.2394
v  1.2032 -1.7154 9.6513
v  7.7752 8.9691 15.6912
v  -1.3389 5.8994 30.3557
v  -12.5706 -1.7154 31.3849
v  -56.2156 6.2751 21.5616
v  -48.4555 7.4814 32.3077
v  -36.6965 7.6166 17.4380
v  -43.8941 7.1099 9.0042
v  -42.5784 0.2100 4.4861
v  -58.9032 0.3038 20.1483
v  -50.3566 0.2808 34.3072
v  -34.5980 0.1955 43.9289
v  -24.4440 0.1357 34.1900
v  -28.8252 5.0719 33.6870
v  -35.1733 4.8567 39.9976
v  -30.9931 0.1267 13.6025
# 42 vertices

vn -0.0388 0.9979 0.0516
vn -0.0496 0.3825 0.9226
vn 0.4769 0.6451 0.5969
vn 0.4065 0.6300 0.6617
vn -0.3474 0.2906 0.8916
vn 0.5745 0.7432 0.3430
vn 0.5629 0.7589 0.3274
vn -0.0488 0.4547 -0.8893
vn -0.0751 0.3774 -0.9230
vn -0.0695 0.3940 -0.9165
vn -0.0392 0.4818 -0.8754
vn -0.6991 0.7064 -0.1106
vn -0.6871 0.7186 -0.1077
vn -0.7254 0.6118 -0.3154
vn -0.7401 0.5804 -0.3398
vn -0.6308 0.7362 0.2452
vn -0.6688 0.6944 0.2657
vn 0.6633 0.6278 -0.4073
vn 0.6514 0.6531 -0.3862
vn 0.6550 0.6457 -0.3925
vn 0.6698 0.6128 -0.4193
vn -0.0307 0.9993 0.0220
vn -0.0262 0.9995 0.0150
vn -0.0150 0.9997 0.0166
vn -0.1661 0.9712 0.1707
vn -0.0008 0.9578 0.2875
vn 0.0409 0.9597 0.2781
vn -0.1589 0.9781 0.1346
vn 0.2702 0.9468 0.1750
vn 0.2727 0.9489 0.1592
vn 0.1980 0.9723 -0.1239
vn -0.0336 0.9765 -0.2128
vn -0.0245 0.9782 -0.2064
vn 0.2672 0.9625 -0.0463
vn -0.1742 0.9763 -0.1284
vn -0.1861 0.9748 -0.1229
vn -0.1380 0.9899 -0.0310
vn -0.1419 0.9899 -0.0003
vn -0.0203 0.9998 0.0052
vn -0.0110 0.9999 -0.0009
vn -0.0160 0.9997 0.0183
vn -0.0151 0.9998 0.0133
vn -0.0587 0.9983 0.0029
vn -0.0144 0.9999 -0.0069
vn 0.0041 1.0000 0.0065
vn -0.0000 1.0000 0.0048
vn -0.0130 0.9999 -0.0002
vn 0.0163 0.9692 -0.2459
vn -0.3441 0.9362 -0.0709
vn -0.4337 0.8955 0.1000
vn -0.1058 0.9469 -0.3037
vn -0.2930 0.9030 0.3144
vn -0.3022 0.8943 0.3300
vn 0.0263 0.9763 0.2147
vn 0.2028 0.9782 0.0446
vn 0.1989 0.9779 0.0643
vn 0.0155 0.9746 0.2235
vn 0.1664 0.9792 -0.1157
vn 0.1735 0.9776 -0.1195
vn 0.0212 0.9994 0.0278
vn 0.0215 0.9995 0.0229
# 61 vertex normals

vt 0.4046 0.4605 0.0000
vt 0.4281 0.2607 0.0000
vt 0.5716 0.3725 0.0000
vt 0.9758 0.3394 0.0000
vt 0.8457 0.6122 0.0000
vt 0.7667 0.5324 0.0000
vt 0.8575 0.3363 0.0000
vt 0.5150 0.7349 0.0000
vt 0.5358 0.6058 0.0000
vt 0.2381 0.5012 0.0000
vt 0.3307 0.1250 0.0000
vt 0.5839 0.0339 0.0000
vt 0.5895 0.1987 0.0000
vt 0.7529 0.2094 0.0000
vt 0.8513 0.0687 0.0000
vt 0.3375 0.8493 0.0000
vt 0.2583 0.8924 0.0000
vt 0.2510 0.7853 0.0000
vt 0.1362 0.5983 0.0000
vt 0.2611 0.5597 0.0000
vt 0.2507 0.6316 0.0000
vt 0.1733 0.6684 0.0000
vt 0.4386 0.6976 0.0000
vt 0.3568 0.7356 0.0000
vt 0.4172 0.9240 0.0000
vt 0.2362 0.9927 0.0000
vt 0.0865 0.8895 0.0000
vt 0.1737 0.8271 0.0000
vt 0.1219 0.7284 0.0000
vt 0.0213 0.7069 0.0000
vt 0.6468 0.8218 0.0000
vt 0.7333 0.7728 0.0000
vt 0.7810 0.8821 0.0000
vt 0.7068 0.9119 0.0000
vt 0.6892 0.9710 0.0000
vt 0.5905 0.8226 0.0000
vt 0.7042 0.7154 0.0000
vt 0.8936 0.6996 0.0000
vt 0.9627 0.8078 0.0000
vt 0.8961 0.8013 0.0000
vt 0.8634 0.7462 0.0000
vt 0.8287 0.9500 0.0000
# 42 texture coords

g Rocks_01
usemtl 02___sdsd
s 8
f 1/1/1 2/2/1 3/3/1 
s 1
f 4/4/2 5/5/3 6/6/4 7/7/5 
f 8/8/6 9/9/7 6/6/4 5/5/3 
s 2
f 10/10/8 11/11/9 2/2/10 1/1/11 
s 1
f 12/12/12 13/13/13 2/2/14 11/11/15 
f 7/7/5 14/14/16 15/15/17 4/4/2 
s 4
f 8/8/18 10/10/19 1/1/20 9/9/21 
s 1
f 12/12/12 15/15/17 14/14/16 13/13/13 
s 8
f 7/7/1 6/6/1 9/9/1 3/3/1 
f 2/2/1 13/13/1 3/3/1 
f 13/13/1 14/14/1 7/7/1 3/3/1 
f 3/3/1 9/9/1 1/1/1 
s 2
f 16/16/22 17/17/23 18/18/24 
s 1
f 19/19/25 20/20/26 21/21/27 22/22/28 
f 23/23/29 24/24/30 21/21/27 20/20/26 
f 25/25/31 26/26/32 17/17/33 16/16/34 
f 27/27/35 28/28/36 17/17/33 26/26/32 
f 22/22/28 29/29/37 30/30/38 19/19/25 
f 23/23/29 25/25/31 16/16/34 24/24/30 
f 27/27/35 30/30/38 29/29/37 28/28/36 
s 2
f 22/22/39 21/21/40 24/24/41 18/18/24 
f 17/17/23 28/28/42 18/18/24 
f 28/28/42 29/29/43 22/22/39 18/18/24 
f 18/18/24 24/24/41 16/16/22 
f 31/31/44 32/32/45 33/33/46 34/34/47 
s 1
f 35/35/48 36/36/49 31/31/50 34/34/51 
f 36/36/49 37/37/52 32/32/53 31/31/50 
f 38/38/54 39/39/55 40/40/56 41/41/57 
f 42/42/58 33/33/59 40/40/56 39/39/55 
s 2
f 32/32/45 41/41/60 40/40/61 33/33/46 
s 1
f 37/37/52 38/38/54 41/41/57 32/32/53 
f 35/35/48 34/34/51 33/33/59 42/42/58 
# 26 polygons - 6 triangles

