# This file uses centimeters as units for non-parametric coordinates.

v -20.846649 -0.187265 4.873520
v -14.843231 -0.187265 4.873520
v -20.846649 45.746113 4.873520
v -14.843231 45.746113 4.873520
v -20.846649 45.746113 -4.873512
v -14.843231 45.746113 -4.873512
v -20.846649 -0.187265 -4.873512
v -14.843231 -0.187265 -4.873512
v -20.846649 15.123861 -4.873512
v -20.846649 15.123861 4.873520
v -14.843231 15.123861 4.873520
v -14.843231 15.123861 -4.873512
v -20.846649 30.434982 -4.873512
v -20.846649 30.434982 4.873520
v -14.843231 30.434982 4.873520
v -14.843231 30.434982 -4.873512
v -21.146149 46.162170 4.401085
v -21.146149 40.158756 4.401085
v 21.179352 46.162170 4.401085
v 21.179352 40.158756 4.401085
v 21.179352 46.162170 -4.240196
v 21.179352 40.158756 -4.240196
v -21.146149 46.162170 -4.240196
v -21.146149 40.158756 -4.240196
v -7.037628 46.162174 -4.240196
v -7.037628 46.162174 4.401085
v -7.037628 40.158764 4.401085
v -7.037628 40.158764 -4.240196
v 7.070862 46.162170 -4.240196
v 7.070862 46.162170 4.401085
v 7.070862 40.158756 4.401085
v 7.070862 40.158756 -4.240196
v 15.400696 -0.187265 4.873520
v 21.404114 -0.187265 4.873520
v 15.400696 45.746113 4.873520
v 21.404114 45.746113 4.873520
v 15.400696 45.746113 -4.873512
v 21.404114 45.746113 -4.873512
v 15.400696 -0.187265 -4.873512
v 21.404114 -0.187265 -4.873512
v 15.400696 15.123861 -4.873512
v 15.400696 15.123861 4.873520
v 21.404114 15.123861 4.873520
v 21.404114 15.123861 -4.873512
v 15.400696 30.434982 -4.873512
v 15.400696 30.434982 4.873520
v 21.404114 30.434982 4.873520
v 21.404114 30.434982 -4.873512
v -18.169800 -4.598504 4.105286
v -18.169800 -4.598504 -4.755440
v 20.001007 -4.598504 4.105286
v 20.001007 -4.598504 -4.755440
v 20.001007 2.441897 4.105286
v 20.001007 2.441897 -4.755440
v -18.169800 2.441897 4.105286
v -18.169800 2.441897 -4.755440
v -5.446198 2.441897 4.105286
v -5.446198 -4.598504 4.105286
v -5.446198 -4.598504 -4.755440
v -5.446198 2.441897 -4.755440
v 7.277405 2.441895 4.105286
v 7.277405 -4.598504 4.105286
v 7.277405 -4.598504 -4.755440
v 7.277405 2.441895 -4.755440
v 37.512085 0.000000 -1.200058
v 37.512085 73.414101 -1.200058
v -37.512085 73.414101 -1.200058
v -37.512085 0.000000 -1.200058
v 18.372253 44.370705 -1.200058
v -18.176483 44.370705 -1.200058
v 18.372253 0.000000 -1.200058
v -18.176483 0.000000 -1.200058
v -37.512085 73.414101 0.441803
v -37.512085 0.000000 0.441803
v 37.512085 73.414101 0.441803
v 37.512085 0.000000 0.441803
v 18.372253 44.370705 0.441803
v -18.176483 44.370705 0.441803
v 18.372253 0.000000 0.441803
v -18.176483 0.000000 0.441803
vt 0.229447 0.688157
vt 0.229447 0.746390
vt 0.000836 0.746390
vt 0.000836 0.688157
vt 0.000836 0.688157
vt 0.000836 0.746390
vt 0.229447 0.746390
vt 0.229447 0.688157
vt 0.000836 0.688157
vt 0.000836 0.746390
vt 0.229447 0.746390
vt 0.229447 0.688157
vt 0.229161 0.688157
vt 0.229161 0.746390
vt 0.000836 0.746390
vt 0.000836 0.688157
vt 0.229161 0.688157
vt 0.229161 0.746390
vt 0.000836 0.746390
vt 0.000836 0.688157
vt 0.000836 0.688157
vt 0.000836 0.746390
vt 0.229161 0.746390
vt 0.229161 0.688157
vt 0.001358 0.688157
vt 0.001358 0.746390
vt 0.186002 0.746390
vt 0.186002 0.688157
vt 0.001358 0.688157
vt 0.001358 0.746390
vt 0.186002 0.746390
vt 0.186002 0.688157
vt 0.001358 0.688157
vt 0.001358 0.746390
vt 0.186002 0.746390
vt 0.186002 0.688157
vt 0.185741 0.746257
vt 0.000647 0.746257
vt 0.000647 0.687780
vt 0.185742 0.687780
vt 0.000647 0.687780
vt 0.185741 0.687780
vt 0.185741 0.746257
vt 0.000647 0.746257
vt 0.000647 0.687780
vt 0.185741 0.687780
vt 0.185741 0.746257
vt 0.000647 0.746257
vt 0.234164 0.688157
vt 0.234164 0.746390
vt 0.000836 0.746390
vt 0.000836 0.688157
vt 0.000836 0.688157
vt 0.000836 0.746390
vt 0.234164 0.746390
vt 0.234164 0.688157
vt 0.000836 0.688157
vt 0.000836 0.746390
vt 0.234164 0.746390
vt 0.234164 0.688157
vt 0.233877 0.688157
vt 0.233877 0.746390
vt 0.000836 0.746390
vt 0.000836 0.688157
vt 0.233877 0.688157
vt 0.233877 0.746390
vt 0.000836 0.746390
vt 0.000836 0.688157
vt 0.000836 0.688157
vt 0.000836 0.746390
vt 0.233877 0.746390
vt 0.233877 0.688157
vt 0.001358 0.688157
vt 0.001358 0.746390
vt 0.186002 0.746390
vt 0.186002 0.688157
vt 0.001358 0.688157
vt 0.001358 0.746390
vt 0.186002 0.746390
vt 0.186002 0.688157
vt 0.001358 0.688157
vt 0.001358 0.746390
vt 0.186002 0.746390
vt 0.186002 0.688157
vt 0.000647 0.687780
vt 0.185741 0.687780
vt 0.185741 0.746257
vt 0.000647 0.746257
vt 0.000647 0.687780
vt 0.185741 0.687780
vt 0.185741 0.746257
vt 0.000647 0.746257
vt 0.000647 0.687780
vt 0.185741 0.687780
vt 0.185741 0.746257
vt 0.000647 0.746257
vt 0.229447 0.688157
vt 0.229447 0.746390
vt 0.000836 0.746390
vt 0.000836 0.688157
vt 0.000836 0.688157
vt 0.000836 0.746390
vt 0.229447 0.746390
vt 0.229447 0.688157
vt 0.000836 0.688157
vt 0.000836 0.746390
vt 0.229447 0.746390
vt 0.229447 0.688157
vt 0.229161 0.688157
vt 0.229161 0.746390
vt 0.000836 0.746390
vt 0.000836 0.688157
vt 0.229161 0.688157
vt 0.229161 0.746390
vt 0.000836 0.746390
vt 0.000836 0.688157
vt 0.000836 0.688157
vt 0.000836 0.746390
vt 0.229161 0.746390
vt 0.229161 0.688157
vt 0.001358 0.688157
vt 0.001358 0.746390
vt 0.186002 0.746390
vt 0.186002 0.688157
vt 0.001358 0.688157
vt 0.001358 0.746390
vt 0.186002 0.746390
vt 0.186002 0.688157
vt 0.001358 0.688157
vt 0.001358 0.746390
vt 0.186002 0.746390
vt 0.186002 0.688157
vt 0.000647 0.687780
vt 0.185741 0.687780
vt 0.185741 0.746257
vt 0.000647 0.746257
vt 0.000647 0.687780
vt 0.185741 0.687780
vt 0.185741 0.746257
vt 0.000647 0.746257
vt 0.000647 0.687780
vt 0.185741 0.687780
vt 0.185741 0.746257
vt 0.000647 0.746257
vt 0.249783 0.688157
vt 0.249783 0.746390
vt 0.000836 0.746390
vt 0.000836 0.688157
vt 0.000836 0.688157
vt 0.000836 0.746390
vt 0.249783 0.746390
vt 0.249783 0.688157
vt 0.000836 0.688157
vt 0.000836 0.746390
vt 0.249783 0.746390
vt 0.249783 0.688157
vt 0.249497 0.688157
vt 0.249497 0.746390
vt 0.000836 0.746390
vt 0.000836 0.688157
vt 0.249497 0.688157
vt 0.249497 0.746390
vt 0.000836 0.746390
vt 0.000836 0.688157
vt 0.000836 0.688157
vt 0.000836 0.746390
vt 0.249497 0.746390
vt 0.249497 0.688157
vt 0.001358 0.688157
vt 0.001358 0.746390
vt 0.186002 0.746390
vt 0.186002 0.688157
vt 0.001358 0.688157
vt 0.001358 0.746390
vt 0.186002 0.746390
vt 0.186002 0.688157
vt 0.001358 0.688157
vt 0.001358 0.746390
vt 0.186002 0.746390
vt 0.186002 0.688157
vt 0.048346 0.614357
vt 0.139483 0.614357
vt 0.185062 0.685187
vt 0.003241 0.685187
vt 0.139483 0.503366
vt 0.185062 0.503366
vt 0.003241 0.503366
vt 0.048346 0.503366
vt 0.547298 0.926020
vt 0.642302 0.926020
vt 0.685473 0.996850
vt 0.503652 0.996850
vt 0.642302 0.815029
vt 0.685473 0.815029
vt 0.503652 0.815029
vt 0.547298 0.815029
vn 0.000000 0.000000 -1.000000
vn 0.000000 0.000000 -1.000000
vn 0.000000 0.000000 -1.000000
vn 0.000000 0.000000 -1.000000
vn 1.000000 0.000000 0.000000
vn 1.000000 0.000000 0.000000
vn 1.000000 0.000000 0.000000
vn 1.000000 0.000000 0.000000
vn -1.000000 0.000000 0.000000
vn -1.000000 0.000000 0.000000
vn -1.000000 0.000000 0.000000
vn -1.000000 0.000000 0.000000
vn -1.000000 0.000000 0.000000
vn -1.000000 0.000000 0.000000
vn -1.000000 0.000000 0.000000
vn -1.000000 0.000000 0.000000
vn 1.000000 0.000000 0.000000
vn 1.000000 0.000000 0.000000
vn 1.000000 0.000000 0.000000
vn 1.000000 0.000000 0.000000
vn 0.000000 0.000000 -1.000000
vn 0.000000 0.000000 -1.000000
vn 0.000000 0.000000 -1.000000
vn 0.000000 0.000000 -1.000000
vn 0.000000 0.000000 1.000000
vn 0.000000 0.000000 1.000000
vn 0.000000 0.000000 1.000000
vn 0.000000 0.000000 1.000000
vn 0.000000 0.000000 1.000000
vn 0.000000 0.000000 1.000000
vn 0.000000 0.000000 1.000000
vn 0.000000 0.000000 1.000000
vn 0.000000 0.000000 1.000000
vn 0.000000 0.000000 1.000000
vn 0.000000 0.000000 1.000000
vn 0.000000 0.000000 1.000000
vn 0.000000 1.000000 0.000000
vn 0.000000 1.000000 0.000000
vn 0.000000 1.000000 0.000000
vn 0.000000 1.000000 0.000000
vn 0.000000 0.000000 -1.000000
vn 0.000000 0.000000 -1.000000
vn -0.000000 0.000000 -1.000000
vn -0.000000 0.000000 -1.000000
vn -0.000000 -1.000000 0.000000
vn -0.000000 -1.000000 0.000000
vn 0.000000 -1.000000 0.000000
vn 0.000000 -1.000000 0.000000
vn 0.000000 1.000000 0.000000
vn 0.000000 1.000000 0.000000
vn 0.000000 1.000000 0.000000
vn 0.000000 1.000000 0.000000
vn -0.000000 1.000000 0.000000
vn -0.000000 1.000000 0.000000
vn 0.000000 1.000000 0.000000
vn 0.000000 1.000000 0.000000
vn 0.000001 -1.000000 0.000000
vn 0.000001 -1.000000 0.000000
vn -0.000000 -1.000000 0.000000
vn -0.000000 -1.000000 0.000000
vn 0.000000 0.000000 -1.000000
vn 0.000000 0.000000 -1.000000
vn 0.000000 0.000000 -1.000000
vn 0.000000 0.000000 -1.000000
vn 0.000000 0.000000 1.000000
vn 0.000000 0.000000 1.000000
vn 0.000000 0.000000 1.000000
vn 0.000000 0.000000 1.000000
vn 0.000000 0.000000 1.000000
vn 0.000000 0.000000 1.000000
vn 0.000000 0.000000 1.000000
vn 0.000000 0.000000 1.000000
vn 0.000000 0.000000 1.000000
vn 0.000000 0.000000 1.000000
vn 0.000000 0.000000 1.000000
vn 0.000000 0.000000 1.000000
vn 0.000000 0.000000 -1.000000
vn 0.000000 0.000000 -1.000000
vn 0.000000 0.000000 -1.000000
vn 0.000000 0.000000 -1.000000
vn 1.000000 0.000000 0.000000
vn 1.000000 0.000000 0.000000
vn 1.000000 0.000000 0.000000
vn 1.000000 0.000000 0.000000
vn -1.000000 0.000000 0.000000
vn -1.000000 0.000000 0.000000
vn -1.000000 0.000000 0.000000
vn -1.000000 0.000000 0.000000
vn -1.000000 0.000000 0.000000
vn -1.000000 0.000000 0.000000
vn -1.000000 0.000000 0.000000
vn -1.000000 0.000000 0.000000
vn 1.000000 0.000000 0.000000
vn 1.000000 0.000000 0.000000
vn 1.000000 0.000000 0.000000
vn 1.000000 0.000000 0.000000
vn 0.000000 0.000000 -1.000000
vn 0.000000 0.000000 -1.000000
vn 0.000000 0.000000 -1.000000
vn 0.000000 0.000000 -1.000000
vn 0.000000 0.000000 1.000000
vn 0.000000 0.000000 1.000000
vn 0.000000 0.000000 1.000000
vn 0.000000 0.000000 1.000000
vn 0.000000 0.000000 1.000000
vn 0.000000 0.000000 1.000000
vn 0.000000 0.000000 1.000000
vn 0.000000 0.000000 1.000000
vn 0.000000 0.000000 1.000000
vn 0.000000 0.000000 1.000000
vn 0.000000 0.000000 1.000000
vn 0.000000 0.000000 1.000000
vn 0.000000 1.000000 0.000000
vn 0.000000 1.000000 0.000000
vn 0.000000 1.000000 0.000000
vn 0.000000 1.000000 0.000000
vn -0.000000 1.000000 0.000000
vn -0.000000 1.000000 0.000000
vn 0.000000 1.000000 0.000000
vn 0.000000 1.000000 0.000000
vn 0.000000 0.000000 -1.000000
vn 0.000000 0.000000 -1.000000
vn -0.000000 0.000000 -1.000000
vn -0.000000 0.000000 -1.000000
vn 0.000000 0.000000 1.000000
vn 0.000000 0.000000 1.000000
vn 0.000000 0.000000 1.000000
vn 0.000000 0.000000 1.000000
vn 0.000000 0.000000 1.000000
vn 0.000000 0.000000 1.000000
vn -0.000000 0.000000 1.000000
vn -0.000000 0.000000 1.000000
vn -0.000000 0.000000 -1.000000
vn -0.000000 0.000000 -1.000000
vn -0.000000 0.000000 -1.000000
vn -0.000000 0.000000 -1.000000
vn 0.000000 1.000000 0.000000
vn 0.000000 1.000000 0.000000
vn 0.000000 1.000000 0.000000
vn 0.000000 1.000000 0.000000
vn 0.000000 0.000000 -1.000000
vn 0.000000 0.000000 -1.000000
vn 0.000000 0.000000 -1.000000
vn 0.000000 0.000000 -1.000000
vn 0.000000 0.000000 -1.000000
vn 0.000000 0.000000 -1.000000
vn 0.000000 0.000000 -1.000000
vn 0.000000 0.000000 -1.000000
vn -0.000000 0.000000 -1.000000
vn -0.000000 0.000000 -1.000000
vn -0.000000 0.000000 -1.000000
vn -0.000000 0.000000 -1.000000
vn 0.000000 0.000000 1.000000
vn 0.000000 0.000000 1.000000
vn 0.000000 0.000000 1.000000
vn 0.000000 0.000000 1.000000
vn 0.000000 0.000000 1.000000
vn 0.000000 0.000000 1.000000
vn 0.000000 0.000000 1.000000
vn 0.000000 0.000000 1.000000
vn -0.000000 0.000000 1.000000
vn -0.000000 0.000000 1.000000
vn -0.000000 0.000000 1.000000
vn -0.000000 0.000000 1.000000
f 5/1/1 6/2/2 16/3/3 13/4/4
f 15/5/5 16/6/6 6/7/7 4/8/8
f 13/9/9 14/10/10 3/11/11 5/12/12
f 7/13/13 1/14/14 10/15/15 9/16/16
f 2/17/17 8/18/18 12/19/19 11/20/20
f 9/21/21 12/22/22 8/23/23 7/24/24
f 9/25/16 10/26/15 14/27/10 13/28/9
f 11/29/20 12/30/19 16/31/6 15/32/5
f 13/33/4 16/34/3 12/35/22 9/36/21
f 3/37/25 14/38/26 15/39/27 4/40/28
f 11/41/29 15/42/30 14/43/31 10/44/32
f 2/45/33 11/46/34 10/47/35 1/48/36
f 6/2/37 5/12/38 3/37/39 4/8/40
f 21/49/41 22/50/42 32/51/43 29/52/44
f 31/53/45 32/54/46 22/55/47 20/56/48
f 29/57/49 30/58/50 19/59/51 21/60/52
f 23/61/53 17/62/54 26/63/55 25/64/56
f 18/65/57 24/66/58 28/67/59 27/68/60
f 25/69/61 28/70/62 24/71/63 23/72/64
f 25/73/56 26/74/55 30/75/50 29/76/49
f 27/77/60 28/78/59 32/79/46 31/80/45
f 29/81/44 32/82/43 28/83/62 25/84/61
f 26/85/65 17/86/66 18/87/67 27/88/68
f 30/89/69 26/90/70 27/91/71 31/92/72
f 19/93/73 30/94/74 31/95/75 20/96/76
f 37/97/77 38/98/78 48/99/79 45/100/80
f 47/101/81 48/102/82 38/103/83 36/104/84
f 45/105/85 46/106/86 35/107/87 37/108/88
f 39/109/89 33/110/90 42/111/91 41/112/92
f 34/113/93 40/114/94 44/115/95 43/116/96
f 41/117/97 44/118/98 40/119/99 39/120/100
f 41/121/92 42/122/91 46/123/86 45/124/85
f 43/125/96 44/126/95 48/127/82 47/128/81
f 45/129/80 48/130/79 44/131/98 41/132/97
f 47/133/101 36/134/102 35/135/103 46/136/104
f 43/137/105 47/138/106 46/139/107 42/140/108
f 34/141/109 43/142/110 42/143/111 33/144/112
f 38/98/113 37/108/114 35/135/115 36/104/116
f 53/145/117 54/146/118 64/147/119 61/148/120
f 63/149/121 64/150/122 54/151/123 52/152/124
f 61/153/125 62/154/126 51/155/127 53/156/128
f 55/157/129 49/158/130 58/159/131 57/160/132
f 50/161/133 56/162/134 60/163/135 59/164/136
f 57/165/137 60/166/138 56/167/139 55/168/140
f 57/169/132 58/170/131 62/171/126 61/172/125
f 59/173/136 60/174/135 64/175/122 63/176/121
f 61/177/120 64/178/119 60/179/138 57/180/137
f 69/181/141 70/182/142 67/183/143 66/184/144
f 72/185/145 68/186/146 67/183/147 70/182/148
f 66/184/149 65/187/150 71/188/151 69/181/152
f 78/189/153 77/190/154 75/191/155 73/192/156
f 79/193/157 76/194/158 75/191/159 77/190/160
f 73/192/161 74/195/162 80/196/163 78/189/164
