# This file uses centimeters as units for non-parametric coordinates.

v -37.512070 73.414101 -0.497837
v 37.512070 73.414101 -0.497837
v 37.512070 0.000000 -0.497837
v -37.512070 0.000000 -0.497837
v 26.701950 0.000000 -0.497837
v 26.701950 42.288651 -0.497837
v -26.609390 0.000000 -0.497837
v -26.609390 42.288651 -0.497837
v -37.512070 73.414101 1.144024
v 37.512070 73.414101 1.144024
v 37.512070 0.000000 1.144024
v -37.512070 0.000000 1.144024
v 26.701950 0.000000 1.144024
v 26.701950 42.288651 1.144024
v -26.609390 0.000000 1.144024
v -26.609390 42.288651 1.144024
v 28.789444 2.441897 4.105282
v 28.789444 2.441897 -4.755444
v 8.279190 2.441895 -4.755444
v 8.279190 2.441895 4.105282
v 8.279190 -4.598504 -4.755444
v 28.789444 -4.598504 -4.755444
v 8.279190 -4.598504 4.105282
v 28.789444 -4.598504 4.105282
v -28.119308 2.441897 4.105282
v -28.119308 -4.598504 4.105282
v -6.994980 -4.598504 4.105282
v -6.994980 2.441897 4.105282
v -28.119308 -4.598504 -4.755444
v -28.119308 2.441897 -4.755444
v -6.994980 2.441897 -4.755444
v -6.994980 -4.598504 -4.755444
v -31.272507 45.746113 -4.873516
v -24.200729 45.746113 -4.873516
v -24.200729 30.434982 -4.873516
v -31.272507 30.434982 -4.873516
v -24.200729 30.434982 4.873516
v -24.200729 45.746113 4.873516
v -31.272507 30.434982 4.873516
v -31.272507 45.746113 4.873516
v -31.272507 -0.187265 -4.873516
v -31.272507 -0.187265 4.873516
v -31.272507 15.123861 4.873516
v -31.272507 15.123861 -4.873516
v -24.200729 -0.187265 4.873516
v -24.200729 -0.187265 -4.873516
v -24.200729 15.123861 -4.873516
v -24.200729 15.123861 4.873516
v 30.177505 46.162170 -4.240200
v 30.177505 40.158756 -4.240200
v 8.072647 40.158756 -4.240200
v 8.072647 46.162170 -4.240200
v 8.072647 40.158756 4.401081
v 30.177505 40.158756 4.401081
v 8.072647 46.162170 4.401081
v 30.177505 46.162170 4.401081
v -30.978012 46.162170 -4.240200
v -30.978012 46.162170 4.401081
v -8.586472 46.162174 4.401081
v -8.586472 46.162174 -4.240200
v -30.978012 40.158756 4.401081
v -30.978012 40.158756 -4.240200
v -8.586472 40.158764 -4.240200
v -8.586472 40.158764 4.401081
v 23.370499 45.746113 -4.873516
v 30.442245 45.746113 -4.873516
v 30.442245 30.434982 -4.873516
v 23.370499 30.434982 -4.873516
v 30.442245 30.434982 4.873516
v 30.442245 45.746113 4.873516
v 23.370499 30.434982 4.873516
v 23.370499 45.746113 4.873516
v 23.370499 -0.187265 -4.873516
v 23.370499 -0.187265 4.873516
v 23.370499 15.123861 4.873516
v 23.370499 15.123861 -4.873516
v 30.442245 -0.187265 4.873516
v 30.442245 -0.187265 -4.873516
v 30.442245 15.123861 -4.873516
v 30.442245 15.123861 4.873516
vt 0.181698 0.686398
vt 0.005351 0.686398
vt 0.023509 0.604631
vt 0.159223 0.604631
vt 0.023509 0.500836
vt 0.005351 0.500836
vt 0.159223 0.500836
vt 0.181698 0.500836
vt 0.684064 0.995662
vt 0.502697 0.995662
vt 0.525821 0.921717
vt 0.656502 0.921717
vt 0.525821 0.818036
vt 0.502697 0.818036
vt 0.656502 0.818036
vt 0.684064 0.818036
vt 0.249062 0.688157
vt 0.249062 0.746390
vt 0.000836 0.746390
vt 0.000836 0.688157
vt 0.000836 0.688157
vt 0.000836 0.746390
vt 0.249062 0.746390
vt 0.249062 0.688157
vt 0.000836 0.688157
vt 0.000836 0.746390
vt 0.249062 0.746390
vt 0.249062 0.688157
vt 0.248776 0.688157
vt 0.248776 0.746390
vt 0.000836 0.746390
vt 0.000836 0.688157
vt 0.248776 0.688157
vt 0.248776 0.746390
vt 0.000836 0.746390
vt 0.000836 0.688157
vt 0.000836 0.688157
vt 0.000836 0.746390
vt 0.248776 0.746390
vt 0.248776 0.688157
vt 0.001358 0.688157
vt 0.001358 0.746390
vt 0.185281 0.746390
vt 0.185281 0.688157
vt 0.001358 0.688157
vt 0.001358 0.746390
vt 0.185281 0.746390
vt 0.185281 0.688157
vt 0.001358 0.688157
vt 0.001358 0.746390
vt 0.185281 0.746390
vt 0.185281 0.688157
vt 0.228726 0.688157
vt 0.228726 0.746390
vt 0.000836 0.746390
vt 0.000836 0.688157
vt 0.000836 0.688157
vt 0.000836 0.746390
vt 0.228726 0.746390
vt 0.228726 0.688157
vt 0.000836 0.688157
vt 0.000836 0.746390
vt 0.228726 0.746390
vt 0.228726 0.688157
vt 0.228440 0.688157
vt 0.228439 0.746390
vt 0.000836 0.746390
vt 0.000836 0.688157
vt 0.228440 0.688157
vt 0.228439 0.746390
vt 0.000836 0.746390
vt 0.000836 0.688157
vt 0.000836 0.688157
vt 0.000836 0.746390
vt 0.228439 0.746390
vt 0.228439 0.688157
vt 0.001358 0.688157
vt 0.001358 0.746390
vt 0.185281 0.746390
vt 0.185281 0.688157
vt 0.001358 0.688157
vt 0.001358 0.746390
vt 0.185281 0.746390
vt 0.185281 0.688157
vt 0.001358 0.688157
vt 0.001358 0.746390
vt 0.185281 0.746390
vt 0.185281 0.688157
vt 0.185020 0.746257
vt 0.000647 0.746257
vt 0.000647 0.687780
vt 0.185020 0.687780
vt 0.000647 0.687780
vt 0.185020 0.687780
vt 0.185020 0.746257
vt 0.000647 0.746257
vt 0.000647 0.687780
vt 0.185020 0.687780
vt 0.185020 0.746257
vt 0.000647 0.746257
vt 0.233443 0.688157
vt 0.233443 0.746390
vt 0.000836 0.746390
vt 0.000836 0.688157
vt 0.000836 0.688157
vt 0.000836 0.746390
vt 0.233443 0.746390
vt 0.233443 0.688157
vt 0.000836 0.688157
vt 0.000836 0.746390
vt 0.233443 0.746390
vt 0.233443 0.688157
vt 0.233156 0.688157
vt 0.233156 0.746390
vt 0.000836 0.746390
vt 0.000836 0.688157
vt 0.233156 0.688157
vt 0.233156 0.746390
vt 0.000836 0.746390
vt 0.000836 0.688157
vt 0.000836 0.688157
vt 0.000836 0.746390
vt 0.233156 0.746390
vt 0.233156 0.688157
vt 0.001358 0.688157
vt 0.001358 0.746390
vt 0.185281 0.746390
vt 0.185281 0.688157
vt 0.001358 0.688157
vt 0.001358 0.746390
vt 0.185281 0.746390
vt 0.185281 0.688157
vt 0.001358 0.688157
vt 0.001358 0.746390
vt 0.185281 0.746390
vt 0.185281 0.688157
vt 0.000647 0.687780
vt 0.185020 0.687780
vt 0.185020 0.746257
vt 0.000647 0.746257
vt 0.000647 0.687780
vt 0.185020 0.687780
vt 0.185020 0.746257
vt 0.000647 0.746257
vt 0.000647 0.687780
vt 0.185020 0.687780
vt 0.185020 0.746257
vt 0.000647 0.746257
vt 0.228726 0.688157
vt 0.228726 0.746390
vt 0.000836 0.746390
vt 0.000836 0.688157
vt 0.000836 0.688157
vt 0.000836 0.746390
vt 0.228726 0.746390
vt 0.228726 0.688157
vt 0.000836 0.688157
vt 0.000836 0.746390
vt 0.228726 0.746390
vt 0.228726 0.688157
vt 0.228440 0.688157
vt 0.228439 0.746390
vt 0.000836 0.746390
vt 0.000836 0.688157
vt 0.228440 0.688157
vt 0.228439 0.746390
vt 0.000836 0.746390
vt 0.000836 0.688157
vt 0.000836 0.688157
vt 0.000836 0.746390
vt 0.228439 0.746390
vt 0.228439 0.688157
vt 0.001358 0.688157
vt 0.001358 0.746390
vt 0.185281 0.746390
vt 0.185281 0.688157
vt 0.001358 0.688157
vt 0.001358 0.746390
vt 0.185281 0.746390
vt 0.185281 0.688157
vt 0.001358 0.688157
vt 0.001358 0.746390
vt 0.185281 0.746390
vt 0.185281 0.688157
vt 0.000647 0.687780
vt 0.185020 0.687780
vt 0.185020 0.746257
vt 0.000647 0.746257
vt 0.000647 0.687780
vt 0.185020 0.687780
vt 0.185020 0.746257
vt 0.000647 0.746257
vt 0.000647 0.687780
vt 0.185020 0.687780
vt 0.185020 0.746257
vt 0.000647 0.746257
vn 0.000000 0.000000 -1.000000
vn 0.000000 0.000000 -1.000000
vn 0.000000 0.000000 -1.000000
vn 0.000000 0.000000 -1.000000
vn 0.000000 0.000000 -1.000000
vn 0.000000 0.000000 -1.000000
vn 0.000000 0.000000 -1.000000
vn 0.000000 0.000000 -1.000000
vn -0.000000 0.000000 -1.000000
vn -0.000000 0.000000 -1.000000
vn -0.000000 0.000000 -1.000000
vn -0.000000 0.000000 -1.000000
vn 0.000000 0.000000 1.000000
vn 0.000000 0.000000 1.000000
vn 0.000000 0.000000 1.000000
vn 0.000000 0.000000 1.000000
vn 0.000000 0.000000 1.000000
vn 0.000000 0.000000 1.000000
vn 0.000000 0.000000 1.000000
vn 0.000000 0.000000 1.000000
vn 0.000000 0.000000 1.000000
vn 0.000000 0.000000 1.000000
vn 0.000000 0.000000 1.000000
vn 0.000000 0.000000 1.000000
vn -0.000000 1.000000 0.000000
vn -0.000000 1.000000 0.000000
vn 0.000000 1.000000 0.000000
vn 0.000000 1.000000 0.000000
vn 0.000000 0.000000 -1.000000
vn 0.000000 0.000000 -1.000000
vn -0.000000 0.000000 -1.000000
vn -0.000000 0.000000 -1.000000
vn 0.000000 0.000000 1.000000
vn 0.000000 0.000000 1.000000
vn -0.000000 0.000000 1.000000
vn -0.000000 0.000000 1.000000
vn 0.000000 0.000000 1.000000
vn 0.000000 0.000000 1.000000
vn 0.000000 0.000000 1.000000
vn 0.000000 0.000000 1.000000
vn -0.000000 0.000000 -1.000000
vn -0.000000 0.000000 -1.000000
vn -0.000000 0.000000 -1.000000
vn 0.000000 0.000000 -1.000000
vn 0.000000 1.000000 0.000000
vn 0.000000 1.000000 0.000000
vn 0.000000 1.000000 0.000000
vn 0.000000 1.000000 0.000000
vn 0.000000 0.000000 -1.000000
vn 0.000000 0.000000 -1.000000
vn 0.000000 0.000000 -1.000000
vn 0.000000 0.000000 -1.000000
vn 1.000000 0.000000 0.000000
vn 1.000000 0.000000 0.000000
vn 1.000000 0.000000 0.000000
vn 1.000000 0.000000 0.000000
vn -1.000000 0.000000 0.000000
vn -1.000000 0.000000 0.000000
vn -1.000000 0.000000 0.000000
vn -1.000000 0.000000 0.000000
vn -1.000000 0.000000 0.000000
vn -1.000000 0.000000 0.000000
vn -1.000000 0.000000 0.000000
vn -1.000000 0.000000 0.000000
vn 1.000000 0.000000 0.000000
vn 1.000000 0.000000 0.000000
vn 1.000000 0.000000 0.000000
vn 1.000000 0.000000 0.000000
vn 0.000000 0.000000 -1.000000
vn 0.000000 0.000000 -1.000000
vn 0.000000 0.000000 -1.000000
vn 0.000000 0.000000 -1.000000
vn 0.000000 0.000000 1.000000
vn 0.000000 0.000000 1.000000
vn 0.000000 0.000000 1.000000
vn 0.000000 0.000000 1.000000
vn 0.000000 0.000000 1.000000
vn 0.000000 0.000000 1.000000
vn 0.000000 0.000000 1.000000
vn 0.000000 0.000000 1.000000
vn 0.000000 0.000000 1.000000
vn 0.000000 0.000000 1.000000
vn 0.000000 0.000000 1.000000
vn 0.000000 0.000000 1.000000
vn 0.000000 1.000000 0.000000
vn 0.000000 1.000000 0.000000
vn 0.000000 1.000000 0.000000
vn 0.000000 1.000000 0.000000
vn 0.000000 0.000000 -1.000000
vn 0.000000 0.000000 -1.000000
vn 0.000000 0.000000 -1.000000
vn 0.000000 0.000000 -1.000000
vn -0.000000 -1.000000 0.000000
vn -0.000000 -1.000000 0.000000
vn 0.000000 -1.000000 0.000000
vn 0.000000 -1.000000 0.000000
vn 0.000000 1.000000 0.000000
vn 0.000000 1.000000 0.000000
vn 0.000000 1.000000 0.000000
vn 0.000000 1.000000 0.000000
vn -0.000000 1.000000 0.000000
vn -0.000000 1.000000 0.000000
vn 0.000000 1.000000 0.000000
vn 0.000000 1.000000 0.000000
vn 0.000000 -1.000000 0.000000
vn 0.000000 -1.000000 0.000000
vn -0.000000 -1.000000 0.000000
vn -0.000000 -1.000000 0.000000
vn 0.000000 0.000000 -1.000000
vn 0.000000 0.000000 -1.000000
vn -0.000000 0.000000 -1.000000
vn -0.000000 0.000000 -1.000000
vn -0.000000 0.000000 1.000000
vn -0.000000 0.000000 1.000000
vn -0.000000 0.000000 1.000000
vn -0.000000 0.000000 1.000000
vn 0.000000 0.000000 1.000000
vn 0.000000 0.000000 1.000000
vn 0.000000 0.000000 1.000000
vn 0.000000 0.000000 1.000000
vn 0.000000 0.000000 1.000000
vn 0.000000 0.000000 1.000000
vn 0.000000 0.000000 1.000000
vn 0.000000 0.000000 1.000000
vn -1.000000 0.000000 0.000000
vn -1.000000 0.000000 0.000000
vn -1.000000 0.000000 0.000000
vn -1.000000 0.000000 0.000000
vn 1.000000 0.000000 0.000000
vn 1.000000 0.000000 0.000000
vn 1.000000 0.000000 0.000000
vn 1.000000 0.000000 0.000000
vn 0.000000 0.000000 -1.000000
vn 0.000000 0.000000 -1.000000
vn 0.000000 0.000000 -1.000000
vn 0.000000 0.000000 -1.000000
vn 1.000000 0.000000 0.000000
vn 1.000000 0.000000 0.000000
vn 1.000000 0.000000 0.000000
vn 1.000000 0.000000 0.000000
vn -1.000000 0.000000 0.000000
vn -1.000000 0.000000 0.000000
vn -1.000000 0.000000 0.000000
vn -1.000000 0.000000 0.000000
vn -1.000000 0.000000 0.000000
vn -1.000000 0.000000 0.000000
vn -1.000000 0.000000 0.000000
vn -1.000000 0.000000 0.000000
vn 1.000000 0.000000 0.000000
vn 1.000000 0.000000 0.000000
vn 1.000000 0.000000 0.000000
vn 1.000000 0.000000 0.000000
vn 0.000000 0.000000 -1.000000
vn 0.000000 0.000000 -1.000000
vn 0.000000 0.000000 -1.000000
vn 0.000000 0.000000 -1.000000
vn 0.000000 0.000000 1.000000
vn 0.000000 0.000000 1.000000
vn 0.000000 0.000000 1.000000
vn 0.000000 0.000000 1.000000
vn 0.000000 0.000000 1.000000
vn 0.000000 0.000000 1.000000
vn 0.000000 0.000000 1.000000
vn 0.000000 0.000000 1.000000
vn 0.000000 0.000000 1.000000
vn 0.000000 0.000000 1.000000
vn 0.000000 0.000000 1.000000
vn 0.000000 0.000000 1.000000
vn 0.000000 1.000000 0.000000
vn 0.000000 1.000000 0.000000
vn 0.000000 1.000000 0.000000
vn 0.000000 1.000000 0.000000
f 1/1/1 2/2/2 6/3/3 8/4/4
f 5/5/5 6/3/6 2/2/7 3/6/8
f 7/7/9 4/8/10 1/1/11 8/4/12
f 9/9/13 16/12/14 14/11/15 10/10/16
f 13/13/17 11/14/18 10/10/19 14/11/20
f 15/15/21 16/12/22 9/9/23 12/16/24
f 17/17/25 18/18/26 19/19/27 20/20/28
f 21/21/29 19/22/30 18/23/31 22/24/32
f 20/25/33 23/26/34 24/27/35 17/28/36
f 25/29/37 26/30/38 27/31/39 28/32/40
f 29/33/41 30/34/42 31/35/43 32/36/44
f 28/37/45 31/38/46 30/39/47 25/40/48
f 28/41/40 27/42/39 23/43/34 20/44/33
f 32/45/44 31/46/43 19/47/30 21/48/29
f 20/49/28 19/50/27 31/51/46 28/52/45
f 33/53/49 34/54/50 35/55/51 36/56/52
f 37/57/53 35/58/54 34/59/55 38/60/56
f 36/61/57 39/62/58 40/63/59 33/64/60
f 41/65/61 42/66/62 43/67/63 44/68/64
f 45/69/65 46/70/66 47/71/67 48/72/68
f 44/73/69 47/74/70 46/75/71 41/76/72
f 44/77/64 43/78/63 39/79/58 36/80/57
f 48/81/68 47/82/67 35/83/54 37/84/53
f 36/85/52 35/86/51 47/87/70 44/88/69
f 40/89/73 39/90/74 37/91/75 38/92/76
f 48/93/77 37/94/78 39/95/79 43/96/80
f 45/97/81 48/98/82 43/99/83 42/100/84
f 34/54/85 33/64/86 40/89/87 38/60/88
f 49/101/89 50/102/90 51/103/91 52/104/92
f 53/105/93 51/106/94 50/107/95 54/108/96
f 52/109/97 55/110/98 56/111/99 49/112/100
f 57/113/101 58/114/102 59/115/103 60/116/104
f 61/117/105 62/118/106 63/119/107 64/120/108
f 60/121/109 63/122/110 62/123/111 57/124/112
f 60/125/104 59/126/103 55/127/98 52/128/97
f 64/129/108 63/130/107 51/131/94 53/132/93
f 52/133/92 51/134/91 63/135/110 60/136/109
f 59/137/113 58/138/114 61/139/115 64/140/116
f 55/141/117 59/142/118 64/143/119 53/144/120
f 56/145/121 55/146/122 53/147/123 54/148/124
f 62/118/125 61/139/126 58/114/127 57/124/128
f 49/112/129 56/145/130 54/108/131 50/102/132
f 65/149/133 66/150/134 67/151/135 68/152/136
f 69/153/137 67/154/138 66/155/139 70/156/140
f 68/157/141 71/158/142 72/159/143 65/160/144
f 73/161/145 74/162/146 75/163/147 76/164/148
f 77/165/149 78/166/150 79/167/151 80/168/152
f 76/169/153 79/170/154 78/171/155 73/172/156
f 76/173/148 75/174/147 71/175/142 68/176/141
f 80/177/152 79/178/151 67/179/138 69/180/137
f 68/181/136 67/182/135 79/183/154 76/184/153
f 69/185/157 70/186/158 72/187/159 71/188/160
f 80/189/161 69/190/162 71/191/163 75/192/164
f 77/193/165 80/194/166 75/195/167 74/196/168
f 66/150/169 65/160/170 72/187/171 70/156/172
