# This file uses centimeters as units for non-parametric coordinates.

v -1.000000 0.000000 37.512100
v 36.512085 0.000000 37.512100
v 36.512085 0.000000 0.000000
v -1.000000 0.000000 0.000000
v -38.512085 0.000000 0.000000
v -1.000000 0.000000 -37.512100
v -38.512085 0.000000 -37.512100
v 36.512085 0.000000 -37.512100
v -38.512085 0.000000 37.512100
vt 0.000943 0.875486
vt 0.186437 0.875486
vt 0.186437 0.999175
vt 0.000943 0.999175
vt 0.000943 0.875486
vt 0.186437 0.875486
vt 0.186437 0.999175
vt 0.000943 0.999175
vt 0.000943 0.875486
vt 0.186437 0.875486
vt 0.186437 0.999175
vt 0.000943 0.999175
vt 0.000943 0.875486
vt 0.186437 0.875486
vt 0.186437 0.999175
vt 0.000943 0.999175
vn 0.000000 1.000000 0.000000
vn 0.000000 1.000000 0.000000
vn 0.000000 1.000000 0.000000
vn 0.000000 1.000000 0.000000
vn 0.000000 1.000000 0.000000
vn 0.000000 1.000000 0.000000
vn 0.000000 1.000000 0.000000
vn 0.000000 1.000000 0.000000
vn 0.000000 1.000000 0.000000
vn 0.000000 1.000000 0.000000
vn 0.000000 1.000000 0.000000
vn 0.000000 1.000000 0.000000
vn 0.000000 1.000000 0.000000
vn 0.000000 1.000000 0.000000
vn 0.000000 1.000000 0.000000
vn 0.000000 1.000000 0.000000
f 1/1/1 2/2/2 3/3/3 4/4/4
f 5/5/5 4/6/6 6/7/7 7/8/8
f 4/9/9 3/10/10 8/11/11 6/12/12
f 9/13/13 1/14/14 4/15/15 5/16/16
