# This file uses centimeters as units for non-parametric coordinates.

v -18.756042 0.000000 18.756058
v 18.756042 0.000000 18.756058
v 18.756042 0.000000 -18.756042
v -18.756042 0.000000 -18.756042
v -18.756042 -2.035111 18.756058
v 18.756042 -2.035111 18.756058
v 18.756042 -2.035111 -18.756042
v -18.756042 -2.035111 -18.756042
vt 0.000943 0.875486
vt 0.186437 0.875486
vt 0.186437 0.999175
vt 0.000943 0.999175
vt 0.000943 0.875486
vt 0.000943 0.999175
vt 0.186437 0.999175
vt 0.186437 0.875486
vt 0.000943 0.925461
vt 0.186437 0.925461
vt 0.186437 0.949200
vt 0.000943 0.949200
vt 0.001045 0.875486
vt 0.001045 0.999175
vt 0.022904 0.999175
vt 0.022904 0.875486
vt 0.000943 0.925461
vt 0.186437 0.925461
vt 0.186437 0.949200
vt 0.000943 0.949200
vt 0.185716 0.999175
vt 0.185716 0.875486
vt 0.173433 0.875486
vt 0.173433 0.999175
vn 0.000000 1.000000 0.000000
vn 0.000000 1.000000 0.000000
vn 0.000000 1.000000 0.000000
vn 0.000000 1.000000 0.000000
vn 0.000000 -1.000000 0.000000
vn 0.000000 -1.000000 0.000000
vn 0.000000 -1.000000 0.000000
vn 0.000000 -1.000000 0.000000
vn 0.000000 0.000000 1.000000
vn 0.000000 0.000000 1.000000
vn 0.000000 0.000000 1.000000
vn 0.000000 0.000000 1.000000
vn -1.000000 0.000000 0.000000
vn -1.000000 0.000000 0.000000
vn -1.000000 0.000000 0.000000
vn -1.000000 0.000000 0.000000
vn 0.000000 0.000000 -1.000000
vn 0.000000 0.000000 -1.000000
vn 0.000000 0.000000 -1.000000
vn 0.000000 0.000000 -1.000000
vn 1.000000 0.000000 0.000000
vn 1.000000 0.000000 0.000000
vn 1.000000 0.000000 0.000000
vn 1.000000 0.000000 0.000000
f 1/1/1 2/2/2 3/3/3 4/4/4
f 5/5/5 8/6/6 7/7/7 6/8/8
f 2/9/9 1/10/10 5/11/11 6/12/12
f 1/13/13 4/14/14 8/15/15 5/16/16
f 4/17/17 3/18/18 7/19/19 8/20/20
f 3/21/21 2/22/22 6/23/23 7/24/24
